<?xml version="1.0" encoding="utf-8"?>
<!-- Generator: Adobe Illustrator 19.0.0, SVG Export Plug-In . SVG Version: 6.00 Build 0)  -->
<!--width="1400px" height="980px" viewBox="0 0 1400 980" -->
<!--0 280 560 840 1130 width:260-->
<!--130 346 560 765 height: 196-->
<svg version="1.1" id="Layer_1" xmlns="http://www.w3.org/2000/svg" xmlns:xlink="http://www.w3.org/1999/xlink" x="0px" y="0px"
	 width="140px" height="96px" viewBox="0 130 260 196" enable-background="new 0 0 700 490" xml:space="preserve">
<g id="XMLID_1_">
	<g id="XMLID_2_">
		<g id="XMLID_3_">
			<path id="XMLID_195_" fill="#404041" d="M153.2,229.1c0-14.7-12-26.7-26.7-26.7c-14.7,0-26.7,12-26.7,26.7
				c0,14.7,12,26.7,26.7,26.7C141.2,255.8,153.2,243.8,153.2,229.1z M106.8,229.1c0-10.9,8.9-19.7,19.7-19.7
				c10.9,0,19.7,8.9,19.7,19.7c0,10.9-8.9,19.7-19.7,19.7C115.6,248.8,106.8,240,106.8,229.1z"/>
			<path id="XMLID_188_" fill="#404041" d="M130,187.9v-14.8c0-1.9-1.6-3.5-3.5-3.5s-3.5,1.6-3.5,3.5v14.8c0,1.9,1.6,3.5,3.5,3.5
				S130,189.8,130,187.9z"/>
			<path id="XMLID_191_" fill="#404041" d="M97.4,203.4c0.9,0,1.8-0.3,2.5-1c1.4-1.4,1.4-3.6,0-4.9l-10.4-10.4
				c-1.4-1.4-3.6-1.4-4.9,0c-1.4,1.4-1.4,3.6,0,4.9l10.4,10.4C95.6,203.1,96.5,203.4,97.4,203.4z"/>
			<path id="XMLID_192_" fill="#404041" d="M85.3,232.6c1.9,0,3.5-1.6,3.5-3.5s-1.6-3.5-3.5-3.5H70.5c-1.9,0-3.5,1.6-3.5,3.5
				s1.6,3.5,3.5,3.5H85.3z"/>
			<path id="XMLID_196_" fill="#404041" d="M89.4,271.1l10.4-10.4c1.4-1.4,1.4-3.6,0-4.9c-1.4-1.4-3.6-1.4-4.9,0l-10.4,10.4
				c-1.4,1.4-1.4,3.6,0,4.9c0.7,0.7,1.6,1,2.5,1S88.7,271.8,89.4,271.1z"/>
			<path id="XMLID_197_" fill="#404041" d="M130,285v-14.8c0-1.9-1.6-3.5-3.5-3.5s-3.5,1.6-3.5,3.5V285c0,1.9,1.6,3.5,3.5,3.5
				S130,287,130,285z"/>
			<path id="XMLID_198_" fill="#404041" d="M166.1,272.1c0.9,0,1.8-0.3,2.5-1c1.4-1.4,1.4-3.6,0-4.9l-10.4-10.4
				c-1.4-1.4-3.6-1.4-4.9,0c-1.4,1.4-1.4,3.6,0,4.9l10.4,10.4C164.3,271.8,165.2,272.1,166.1,272.1z"/>
			<path id="XMLID_199_" fill="#404041" d="M182.5,232.6c1.9,0,3.5-1.6,3.5-3.5s-1.6-3.5-3.5-3.5h-14.8c-1.9,0-3.5,1.6-3.5,3.5
				s1.6,3.5,3.5,3.5H182.5z"/>
			<path id="XMLID_226_" fill="#404041" d="M158.1,202.4l10.4-10.4c1.4-1.4,1.4-3.6,0-4.9c-1.4-1.4-3.6-1.4-4.9,0l-10.4,10.4
				c-1.4,1.4-1.4,3.6,0,4.9c0.7,0.7,1.6,1,2.5,1S157.4,203.1,158.1,202.4z"/>
		</g>
	</g>
</g>
</svg>
