<?xml version="1.0" encoding="utf-8"?>
<!-- Generator: Adobe Illustrator 19.0.0, SVG Export Plug-In . SVG Version: 6.00 Build 0)  -->
<!--width="1400px" height="980px" viewBox="0 0 1400 980" -->
<!--0 280 560 840 1130 width:260-->
<!--130 346 560 765 height: 196-->
<svg version="1.1" id="Layer_1" xmlns="http://www.w3.org/2000/svg" xmlns:xlink="http://www.w3.org/1999/xlink" x="0px" y="0px"
	 width="140px" height="96px" viewBox="1130 346 260 196" enable-background="new 0 0 700 490" xml:space="preserve">
<g id="XMLID_1_">
  <g id="XMLID_6_">
    <g id="XMLID_55_">
      <path id="XMLID_236_" fill="#404041" d="M1247.1,475.1h52.6c8,0,15.5-4.2,19.6-11.1c2.5-3.4,3.9-7.5,3.9-11.8
        c0-11-8.9-19.9-19.9-19.9c-0.6,0-1.1,0-1.7,0.1c-4.7-11.7-16.1-19.6-28.9-19.6c-0.2,0-0.4,0-0.6,0c-3.2-12.8-14.7-22-28.2-22
        c-16,0-29.1,13-29.1,29.1c0,9.4,4.5,18,11.9,23.5c-1.6,2.6-2.5,5.6-2.5,8.9C1224.2,464.8,1234.5,475.1,1247.1,475.1z
         M1269.4,420.6C1269.5,420.6,1269.5,420.6,1269.4,420.6c1.1-0.2,2.2-0.2,3.3-0.2c10.6,0,19.9,7.1,22.7,17.3
        c0.6,2,2.6,3.2,4.6,2.6c1.1-0.3,2.2-0.4,3.2-0.4c6.8,0,12.3,5.5,12.3,12.3c0,2.7-0.9,5.3-2.5,7.4c-0.1,0.1-0.2,0.2-0.2,0.4
        c-2.7,4.7-7.8,7.6-13.2,7.6h-52.6c-8.5,0-15.3-6.9-15.3-15.3c0-5.2,4.3-9.5,9.5-9.5c1.1,0,2.1,0.2,3.1,0.5
        c1.1,0.4,2.2,0.3,3.2-0.3c1-0.6,1.6-1.6,1.8-2.7C1251.1,429.8,1259.2,422,1269.4,420.6C1269.4,420.6,1269.4,420.6,1269.4,420.6z
         M1222.4,419.8c0-11.9,9.6-21.5,21.5-21.5c9.7,0,18,6.5,20.7,15.5c-10.4,2.8-18.7,10.8-21.7,21.3c-0.5,0-1-0.1-1.5-0.1
        c-3.4,0-6.5,1-9.2,2.7C1226.1,433.9,1222.4,427.2,1222.4,419.8z"/>
      <path id="XMLID_56_" fill="#404041" d="M1247.7,385.1v-8.8c0-2.1-1.7-3.8-3.8-3.8c-2.1,0-3.8,1.7-3.8,3.8v8.8
        c0,2.1,1.7,3.8,3.8,3.8C1246,388.9,1247.7,387.2,1247.7,385.1z"/>
      <path id="XMLID_73_" fill="#404041" d="M1226.5,393.6c0.6,0,1.3-0.2,1.9-0.5c1.8-1,2.4-3.4,1.4-5.2l-4.4-7.7
        c-1-1.8-3.4-2.4-5.2-1.4c-1.8,1-2.4,3.4-1.4,5.2l4.4,7.7C1224,392.9,1225.2,393.6,1226.5,393.6z"/>
      <path id="XMLID_87_" fill="#404041" d="M1211.9,405.8c0.6,0.3,1.2,0.5,1.9,0.5c1.3,0,2.6-0.7,3.3-1.9c1-1.8,0.4-4.1-1.4-5.2
        l-7.7-4.4c-1.8-1-4.1-0.4-5.2,1.4c-1,1.8-0.4,4.1,1.4,5.2L1211.9,405.8z"/>
      <path id="XMLID_88_" fill="#404041" d="M1209.2,423.6c2.1,0,3.8-1.7,3.8-3.8c0-2.1-1.7-3.8-3.8-3.8h-8.8c-2.1,0-3.8,1.7-3.8,3.8
        c0,2.1,1.7,3.8,3.8,3.8H1209.2z"/>
      <path id="XMLID_89_" fill="#404041" d="M1206.2,445.4c0.6,0,1.3-0.2,1.9-0.5l7.7-4.4c1.8-1,2.4-3.4,1.4-5.2
        c-1-1.8-3.4-2.4-5.2-1.4l-7.7,4.4c-1.8,1-2.4,3.4-1.4,5.2C1203.6,444.7,1204.9,445.4,1206.2,445.4z"/>
      <path id="XMLID_90_" fill="#404041" d="M1273.9,406.3c0.6,0,1.3-0.2,1.9-0.5l7.7-4.4c1.8-1,2.4-3.4,1.4-5.2
        c-1-1.8-3.4-2.4-5.2-1.4l-7.7,4.4c-1.8,1-2.4,3.4-1.4,5.2C1271.4,405.6,1272.6,406.3,1273.9,406.3z"/>
      <path id="XMLID_91_" fill="#404041" d="M1261.2,393.6c1.3,0,2.6-0.7,3.3-1.9l4.4-7.7c1-1.8,0.4-4.1-1.4-5.2
        c-1.8-1-4.1-0.4-5.2,1.4l-4.4,7.7c-1,1.8-0.4,4.1,1.4,5.2C1259.9,393.4,1260.6,393.6,1261.2,393.6z"/>
    </g>
  </g>
</g>
</svg>
