<?xml version="1.0" encoding="utf-8"?>
<!-- Generator: Adobe Illustrator 19.0.0, SVG Export Plug-In . SVG Version: 6.00 Build 0)  -->
<!--width="1400px" height="980px" viewBox="0 0 1400 980" -->
<!--0 280 560 840 1130 width:260-->
<!--130 346 560 765 height: 196-->
<svg version="1.1" id="Layer_1" xmlns="http://www.w3.org/2000/svg" xmlns:xlink="http://www.w3.org/1999/xlink" x="0px" y="0px"
	 width="140px" height="96px" viewBox="1130 130 260 196" enable-background="new 0 0 700 490" xml:space="preserve">
<g id="XMLID_1_">
  <path id="XMLID_107_" fill="#404041" d="M1206,265.2h97.8c17.1,0,31-13.9,31-31c0-17.1-13.9-31-31-31c-3.5,0-6.8,0.6-10,1.7
    c-6.5-16.2-22.4-27.2-40.1-27.2c-22.9,0-41.8,18-43.2,40.6c-0.6-0.1-1.3-0.1-1.9-0.1c-13,0-23.5,10.5-23.5,23.5
    c0,11.4,8.2,21.1,19.3,23.1C1204.8,265,1205.4,265.2,1206,265.2z M1192.6,241.7c0-8.8,7.1-15.9,15.9-15.9c1.5,0,3.1,0.2,4.6,0.7
    c1.2,0.4,2.5,0.1,3.4-0.6c1-0.8,1.5-1.9,1.5-3.2c0-0.6,0-1.1,0-1.7c0-19.7,16-35.7,35.7-35.7c15.8,0,29.9,10.6,34.2,25.7
    c0.3,1.1,1.1,2,2.1,2.4c1,0.5,2.2,0.4,3.2-0.1c3.3-1.7,6.9-2.5,10.6-2.5c12.9,0,23.4,10.5,23.4,23.4c0,12.9-10.5,23.4-23.4,23.4
    h-96.6c-0.2-0.1-0.4-0.1-0.7-0.1C1198.6,256.5,1192.6,249.7,1192.6,241.7z"/>
</g>
</svg>
