<?xml version="1.0" encoding="utf-8"?>
  <!-- Generator: Adobe Illustrator 19.0.0, SVG Export Plug-In . SVG Version: 6.00 Build 0)  -->
  <!--width="1400px" height="980px" viewBox="0 0 1400 980" -->
  <!--0 280 560 840 1130 width:260-->
  <!--130 346 560 765 height: 196-->
  <svg version="1.1" id="Layer_1" xmlns="http://www.w3.org/2000/svg" xmlns:xlink="http://www.w3.org/1999/xlink" x="0px" y="0px"
  	 width="140px" height="96px" viewBox="280 560 260 196" enable-background="new 0 0 700 490" xml:space="preserve">
     <path id="XMLID_82_" fill="#404041" d="M470.8,662.1c8.1-1.4,14-8.2,14-16.2c0-9.1-7.7-16.5-17.2-16.5c-0.1,0-0.1,0-0.2,0
       c-1.6-14.7-14.7-26.1-30.5-26.1c-12.1,0-23.1,6.9-28,17.3c-2-0.6-4.1-0.8-6.2-0.8c-8.9,0-17,5.2-20.5,12.9
       c-15.3,2.5-27.3,15.3-28.6,31c-0.2,0-0.5,0-0.7,0c-10.5,0-19.1,8.6-19.1,19.1c0,9.2,6.6,17.1,15.5,18.7c0.5,0.2,1,0.3,1.6,0.3
       h75.8c13.7,0,24.9-11.2,24.9-24.9c0-5.4-1.7-10.4-4.7-14.5h22.3C469.9,662.4,470.4,662.3,470.8,662.1z M426.9,694.1h-74.8
       c-0.2,0-0.4-0.1-0.5-0.1c-5.7-0.7-10-5.6-10-11.4c0-6.3,5.2-11.5,11.5-11.5c1.1,0,2.2,0.2,3.3,0.5c1.2,0.4,2.5,0.1,3.4-0.6
       c1-0.8,1.5-1.9,1.5-3.2c0-0.4,0-0.9,0-1.3c0-14.8,12-26.8,26.8-26.8c11.9,0,22.5,8,25.7,19.3c0.3,1.1,1.1,2,2.1,2.4
       c1,0.4,2.2,0.4,3.2-0.1c2.4-1.2,5.1-1.9,7.8-1.9c9.5,0,17.3,7.8,17.3,17.3C444.2,686.4,436.4,694.1,426.9,694.1z M468.4,654.8h-30
       c-3.4-1.8-7.4-2.8-11.5-2.8c-2.5,0-5,0.4-7.3,1.1c-4.9-11.4-15.8-19.4-28.2-20.7c2.7-3.1,6.9-5,11.4-5c2.4,0,4.6,0.5,6.7,1.5
       c1,0.5,2.1,0.5,3.2,0.1c1-0.4,1.8-1.3,2.1-2.4c2.8-9.2,11.9-15.7,22.2-15.7c12.7,0,23.1,9.7,23.1,21.7c0,0.3,0,0.7,0,1
       c-0.1,1.2,0.5,2.4,1.4,3.2c1,0.8,2.2,1,3.4,0.7c0.9-0.3,1.9-0.4,2.8-0.4c5.3,0,9.6,4,9.6,8.9c0,4.5-3.6,8.3-8.4,8.8
       C468.8,654.7,468.6,654.8,468.4,654.8z"/>
  </svg>
