<?xml version="1.0" encoding="utf-8"?>
<!-- Generator: Adobe Illustrator 19.0.0, SVG Export Plug-In . SVG Version: 6.00 Build 0)  -->
<!--width="1400px" height="980px" viewBox="0 0 1400 980" -->
<!--0 280 560 840 1130 width:260-->
<!--130 346 560 765 height: 196-->
<svg version="1.1" id="Layer_1" xmlns="http://www.w3.org/2000/svg" xmlns:xlink="http://www.w3.org/1999/xlink" x="0px" y="0px"
	 width="140px" height="96px" viewBox="840 560 260 196" enable-background="new 0 0 700 490" xml:space="preserve">
<g id="XMLID_1_">
  <g id="XMLID_47_">
    <path id="XMLID_135_" fill="#404041" d="M962.4,692.3h52.6c8,0,15.5-4.2,19.6-11.1c2.5-3.4,3.9-7.5,3.9-11.8
      c0-11-8.9-19.9-19.9-19.9c-0.6,0-1.1,0-1.7,0.1c-4.7-11.7-16.1-19.6-28.9-19.6c-0.2,0-0.4,0-0.6,0c-3.2-12.8-14.7-22-28.2-22
      c-16,0-29.1,13-29.1,29.1c0,9.4,4.5,18,11.9,23.5c-1.6,2.6-2.5,5.6-2.5,8.9C939.5,682,949.8,692.3,962.4,692.3z M984.8,637.8
      C984.8,637.8,984.8,637.8,984.8,637.8c1.1-0.2,2.2-0.2,3.3-0.2c10.6,0,19.9,7.1,22.7,17.3c0.6,2,2.6,3.2,4.6,2.6
      c1.1-0.3,2.1-0.4,3.2-0.4c6.8,0,12.3,5.5,12.3,12.3c0,2.7-0.9,5.3-2.5,7.4c-0.1,0.1-0.2,0.2-0.2,0.4c-2.7,4.7-7.8,7.6-13.2,7.6
      h-52.6c-8.5,0-15.3-6.9-15.3-15.3c0-5.2,4.3-9.5,9.5-9.5c1.1,0,2.1,0.2,3.1,0.5c1.1,0.4,2.2,0.3,3.2-0.3c1-0.6,1.6-1.6,1.8-2.7
      C966.4,647,974.6,639.2,984.8,637.8C984.7,637.8,984.8,637.8,984.8,637.8z M937.7,637c0-11.9,9.6-21.5,21.5-21.5
      c9.7,0,18,6.5,20.7,15.5c-10.4,2.8-18.7,10.8-21.7,21.3c-0.5,0-1-0.1-1.5-0.1c-3.4,0-6.5,1-9.2,2.7
      C941.4,651,937.7,644.4,937.7,637z"/>
    <path id="XMLID_49_" fill="#404041" d="M963,602.3v-8.8c0-2.1-1.7-3.8-3.8-3.8c-2.1,0-3.8,1.7-3.8,3.8v8.8c0,2.1,1.7,3.8,3.8,3.8
      C961.3,606.1,963,604.4,963,602.3z"/>
    <path id="XMLID_50_" fill="#404041" d="M941.9,610.8c0.6,0,1.3-0.2,1.9-0.5c1.8-1,2.4-3.4,1.4-5.2l-4.4-7.7
      c-1-1.8-3.4-2.4-5.2-1.4c-1.8,1-2.4,3.4-1.4,5.2l4.4,7.7C939.3,610.1,940.6,610.8,941.9,610.8z"/>
    <path id="XMLID_52_" fill="#404041" d="M927.3,623c0.6,0.3,1.2,0.5,1.9,0.5c1.3,0,2.6-0.7,3.3-1.9c1-1.8,0.4-4.1-1.4-5.2
      l-7.7-4.4c-1.8-1-4.1-0.4-5.2,1.4c-1,1.8-0.4,4.1,1.4,5.2L927.3,623z"/>
    <path id="XMLID_59_" fill="#404041" d="M924.5,640.8c2.1,0,3.8-1.7,3.8-3.8c0-2.1-1.7-3.8-3.8-3.8h-8.8c-2.1,0-3.8,1.7-3.8,3.8
      c0,2.1,1.7,3.8,3.8,3.8H924.5z"/>
    <path id="XMLID_68_" fill="#404041" d="M921.5,662.6c0.6,0,1.3-0.2,1.9-0.5l7.7-4.4c1.8-1,2.4-3.4,1.4-5.2
      c-1-1.8-3.4-2.4-5.2-1.4l-7.7,4.4c-1.8,1-2.4,3.4-1.4,5.2C918.9,661.9,920.2,662.6,921.5,662.6z"/>
    <path id="XMLID_72_" fill="#404041" d="M989.3,623.5c0.6,0,1.3-0.2,1.9-0.5l7.7-4.4c1.8-1,2.4-3.4,1.4-5.2
      c-1-1.8-3.4-2.4-5.2-1.4l-7.7,4.4c-1.8,1-2.4,3.4-1.4,5.2C986.7,622.8,988,623.5,989.3,623.5z"/>
    <path id="XMLID_86_" fill="#404041" d="M976.6,610.8c1.3,0,2.6-0.7,3.3-1.9l4.4-7.7c1-1.8,0.4-4.1-1.4-5.2
      c-1.8-1-4.1-0.4-5.2,1.4l-4.4,7.7c-1,1.8-0.4,4.1,1.4,5.2C975.3,610.6,975.9,610.8,976.6,610.8z"/>
    <path id="XMLID_97_" fill="#404041" d="M957.5,708.1c1.7,0,3.2-1.1,3.7-2.8l0.6-2.1c0.5-2-0.7-4.1-2.7-4.6
      c-2-0.5-4.1,0.7-4.6,2.7l-0.6,2.1c-0.5,2,0.7,4.1,2.7,4.6C956.9,708.1,957.2,708.1,957.5,708.1z"/>
    <path id="XMLID_98_" fill="#404041" d="M977.9,708.1c1.7,0,3.2-1.1,3.7-2.8l0.6-2.1c0.5-2-0.7-4.1-2.7-4.6
      c-2-0.5-4.1,0.7-4.6,2.7l-0.6,2.1c-0.5,2,0.7,4.1,2.7,4.6C977.2,708.1,977.5,708.1,977.9,708.1z"/>
    <path id="XMLID_99_" fill="#404041" d="M998.2,708.1c1.7,0,3.2-1.1,3.7-2.8l0.6-2.1c0.5-2-0.7-4.1-2.7-4.6
      c-2-0.5-4.1,0.7-4.6,2.7l-0.6,2.1c-0.5,2,0.7,4.1,2.7,4.6C997.5,708.1,997.9,708.1,998.2,708.1z"/>
    <path id="XMLID_101_" fill="#404041" d="M1018.5,708.1c1.7,0,3.2-1.1,3.7-2.8l0.6-2.1c0.5-2-0.7-4.1-2.7-4.6
      c-2-0.5-4.1,0.7-4.6,2.7l-0.6,2.1c-0.5,2,0.7,4.1,2.7,4.6C1017.9,708.1,1018.2,708.1,1018.5,708.1z"/>
  </g>
</g>
</svg>
