<?xml version="1.0" encoding="utf-8"?>
  <!-- Generator: Adobe Illustrator 19.0.0, SVG Export Plug-In . SVG Version: 6.00 Build 0)  -->
  <!--width="1400px" height="980px" viewBox="0 0 1400 980" -->
  <!--0 280 560 840 1130 width:260-->
  <!--130 346 560 765 height: 196-->
  <svg version="1.1" id="Layer_1" xmlns="http://www.w3.org/2000/svg" xmlns:xlink="http://www.w3.org/1999/xlink" x="0px" y="0px"
  	 width="140px" height="96px" viewBox="280 765 260 196" enable-background="new 0 0 700 490" xml:space="preserve">
     <path id="XMLID_102_" fill="#404041" d="M360.1,877c-2-0.5-4.1,0.7-4.6,2.7c-0.5,2,0.7,4.1,2.7,4.6l5.8,1.6l-5.1,2.9
       c-1.8,1-2.4,3.4-1.4,5.2c0.7,1.2,2,1.9,3.3,1.9c0.6,0,1.3-0.2,1.9-0.5l5.1-2.9l-1.6,5.8c-0.5,2,0.7,4.1,2.7,4.6
       c0.3,0.1,0.7,0.1,1,0.1c1.7,0,3.2-1.1,3.7-2.8l3.5-13.2l2.9-1.7l-1.6,5.8c-0.5,2,0.7,4.1,2.7,4.6c0.3,0.1,0.7,0.1,1,0.1
       c1.7,0,3.2-1.1,3.7-2.8l3.5-13.2l16.2-9.4v19l-9.6,9.6c-1.5,1.5-1.5,3.9,0,5.4c1.5,1.5,3.9,1.5,5.4,0l4.3-4.3v3.4l-9.6,9.6
       c-1.5,1.5-1.5,3.9,0,5.4c0.7,0.7,1.7,1.1,2.7,1.1s1.9-0.4,2.7-1.1l4.3-4.3v5.8c0,2.1,1.7,3.8,3.8,3.8c2.1,0,3.8-1.7,3.8-3.8v-5.8
       l4.3,4.3c1.5,1.5,3.9,1.5,5.4,0c1.5-1.5,1.5-3.9,0-5.4l-9.6-9.6v-3.4l4.3,4.3c0.7,0.7,1.7,1.1,2.7,1.1c1,0,1.9-0.4,2.7-1.1
       c1.5-1.5,1.5-3.9,0-5.4l-9.6-9.6v-19l16.4,9.5l3.5,13.2c0.5,1.7,2,2.8,3.7,2.8c0.3,0,0.7,0,1-0.1c2-0.5,3.2-2.6,2.7-4.6l-1.6-5.8
       l2.9,1.7l3.5,13.2c0.5,1.7,2,2.8,3.7,2.8c0.3,0,0.7,0,1-0.1c2-0.5,3.2-2.6,2.7-4.6l-1.6-5.8l5.1,2.9c0.6,0.3,1.2,0.5,1.9,0.5
       c1.3,0,2.6-0.7,3.3-1.9c1-1.8,0.4-4.1-1.4-5.2l-5.1-2.9l5.8-1.6c2-0.5,3.2-2.6,2.7-4.6c-0.5-2-2.6-3.2-4.6-2.7l-13.2,3.5l-2.9-1.7
       l5.8-1.6c2-0.5,3.2-2.6,2.7-4.6c-0.5-2-2.6-3.2-4.6-2.7l-13.2,3.5l-16.4-9.5l16.4-9.5l13.2,3.5c0.3,0.1,0.7,0.1,1,0.1
       c1.7,0,3.2-1.1,3.7-2.8c0.5-2-0.7-4.1-2.7-4.6l-5.8-1.6l2.9-1.7l13.2,3.5c0.3,0.1,0.7,0.1,1,0.1c1.7,0,3.2-1.1,3.7-2.8
       c0.5-2-0.7-4.1-2.7-4.6l-5.8-1.6l5.1-2.9c1.8-1,2.4-3.4,1.4-5.2c-1-1.8-3.4-2.4-5.2-1.4l-5.1,2.9l1.6-5.8c0.5-2-0.7-4.1-2.7-4.6
       c-2-0.5-4.1,0.7-4.6,2.7l-3.5,13.2l-2.9,1.7l1.6-5.8c0.5-2-0.7-4.1-2.7-4.6c-2-0.5-4.1,0.7-4.6,2.7l-3.5,13.2l-16.4,9.5v-18.7
       l9.6-9.6c1.5-1.5,1.5-3.9,0-5.4c-1.5-1.5-3.9-1.5-5.4,0l-4.3,4.3v-3.4l9.6-9.6c1.5-1.5,1.5-3.9,0-5.4c-1.5-1.5-3.9-1.5-5.4,0
       l-4.3,4.3v-5.8c0-2.1-1.7-3.8-3.8-3.8c-2.1,0-3.8,1.7-3.8,3.8v5.8l-4.3-4.3c-1.5-1.5-3.9-1.5-5.4,0c-1.5,1.5-1.5,3.9,0,5.4
       l9.6,9.6v3.4l-4.3-4.3c-1.5-1.5-3.9-1.5-5.4,0c-1.5,1.5-1.5,3.9,0,5.4l9.6,9.6v18.7l-16.2-9.4l-3.5-13.2c-0.5-2-2.6-3.2-4.6-2.7
       c-2,0.5-3.2,2.6-2.7,4.6l1.6,5.8l-2.9-1.7l-3.5-13.2c-0.5-2-2.6-3.2-4.6-2.7c-2,0.5-3.2,2.6-2.7,4.6l1.6,5.8l-5.1-2.9
       c-1.8-1-4.1-0.4-5.2,1.4c-1,1.8-0.4,4.1,1.4,5.2l5.1,2.9l-5.8,1.6c-2,0.5-3.2,2.6-2.7,4.6c0.5,1.7,2,2.8,3.7,2.8
       c0.3,0,0.7,0,1-0.1l13.2-3.5l2.9,1.7l-5.8,1.6c-2,0.5-3.2,2.6-2.7,4.6c0.5,1.7,2,2.8,3.7,2.8c0.3,0,0.7,0,1-0.1l13.2-3.5l16.2,9.4
       l-16.2,9.4l-13.2-3.5c-2-0.5-4.1,0.7-4.6,2.7c-0.5,2,0.7,4.1,2.7,4.6l5.8,1.6l-2.9,1.7L360.1,877z"/>
  </svg>
