<?xml version="1.0" encoding="utf-8"?>
<!-- Generator: Adobe Illustrator 19.0.0, SVG Export Plug-In . SVG Version: 6.00 Build 0)  -->
<!--width="1400px" height="980px" viewBox="0 0 1400 980" -->
<!--0 280 560 840 1130 width:260-->
<!--130 346 560 765 height: 196-->
<svg version="1.1" id="Layer_1" xmlns="http://www.w3.org/2000/svg" xmlns:xlink="http://www.w3.org/1999/xlink" x="0px" y="0px"
	 width="140px" height="96px" viewBox="0 560 260 196" enable-background="new 0 0 700 490" xml:space="preserve">
<g id="XMLID_1_">
  <path id="XMLID_139_" fill="#404041" d="M119.4,593.4c1.5-0.7,2.3-2.1,2.2-3.7c-0.1-1.6-1.2-2.9-2.7-3.4
    c-4.7-1.4-9.6-1.9-14.6-1.5c-23.1,1.6-40.6,21.8-38.9,44.9c0.9,12.6,7.3,23.9,17.2,31.1c-7.4,2.6-12.7,9.7-12.7,18
    c0,9.2,6.6,17.1,15.5,18.7c0.5,0.2,1,0.3,1.6,0.3h75.8c13.7,0,24.9-11.2,24.9-24.9c0-13.7-11.2-24.9-24.9-24.9
    c-2.5,0-5,0.4-7.3,1.1c-5.3-12.5-17.8-20.9-31.6-20.9c-8.7,0-16.7,3.3-22.7,8.6c-1.1-3-1.8-6.2-2.1-9.5
    C98.1,612.9,106.3,599.3,119.4,593.4z M123.9,635.8c11.9,0,22.5,8,25.7,19.3c0.3,1.1,1.1,2,2.1,2.4c1,0.4,2.2,0.4,3.2-0.1
    c2.4-1.2,5.1-1.9,7.8-1.9c9.5,0,17.3,7.8,17.3,17.3c0,9.5-7.8,17.3-17.3,17.3H88c-0.2,0-0.4-0.1-0.5-0.1c-5.7-0.7-10-5.6-10-11.4
    c0-6.3,5.2-11.5,11.5-11.5c1.1,0,2.2,0.2,3.3,0.5c1.2,0.4,2.5,0.1,3.4-0.6s1.5-1.9,1.5-3.2c0-0.4,0-0.9,0-1.3
    C97.1,647.8,109.1,635.8,123.9,635.8z M91.6,627.8c0.4,5.4,1.7,10.5,4.1,15.3c-2.7,4-4.7,8.5-5.6,13.5
    c-9.9-5.7-16.3-15.8-17.1-27.4c-1.3-18.9,13-35.4,31.9-36.8c0.7-0.1,1.4-0.1,2.1-0.1C96.6,600.8,90.6,614,91.6,627.8z"/>
</g>
</svg>
