<?xml version="1.0" encoding="utf-8"?>
<!-- Generator: Adobe Illustrator 19.0.0, SVG Export Plug-In . SVG Version: 6.00 Build 0)  -->
<!--width="1400px" height="980px" viewBox="0 0 1400 980" -->
<!--0 280 560 840 1130 width:260-->
<!--130 346 560 765 height: 196-->
<svg version="1.1" id="Layer_1" xmlns="http://www.w3.org/2000/svg" xmlns:xlink="http://www.w3.org/1999/xlink" x="0px" y="0px"
	 width="140px" height="96px" viewBox="560 130 260 196" enable-background="new 0 0 700 490" xml:space="preserve">
<g id="XMLID_1_">
  <path id="XMLID_228_" fill="#404041" d="M717.7,199c1.5-0.5,2.5-2,2.5-3.6s-1-3-2.5-3.6c-4.4-1.6-8.9-2.4-13.6-2.4
    c-21.8,0-39.6,17.8-39.6,39.6s17.8,39.6,39.6,39.6c4.7,0,9.3-0.8,13.6-2.4c1.5-0.5,2.5-2,2.5-3.6s-1-3-2.5-3.6
    c-12.6-4.6-21-16.7-21-30.1C696.7,215.7,705.1,203.6,717.7,199z M689.1,229.1c0,12.8,6.2,24.7,16.3,32c-0.4,0-0.9,0-1.3,0
    c-17.7,0-32-14.4-32-32c0-17.7,14.4-32,32-32c0.4,0,0.9,0,1.3,0C695.3,204.4,689.1,216.3,689.1,229.1z"/>
</g>
</svg>
