<?xml version="1.0" encoding="utf-8"?>
<!-- Generator: Adobe Illustrator 19.0.0, SVG Export Plug-In . SVG Version: 6.00 Build 0)  -->
<!--width="1400px" height="980px" viewBox="0 0 1400 980" -->
<!--0 280 560 840 1130 width:260-->
<!--130 346 560 765 height: 196-->
<svg version="1.1" id="Layer_1" xmlns="http://www.w3.org/2000/svg" xmlns:xlink="http://www.w3.org/1999/xlink" x="0px" y="0px"
	 width="140px" height="96px" viewBox="560 560 260 196" enable-background="new 0 0 700 490" xml:space="preserve">
<g id="XMLID_1_">
  <g id="XMLID_32_">
    <path id="XMLID_160_" fill="#404041" d="M650.5,662.4h75.8c13.7,0,24.9-11.2,24.9-24.9c0-13.7-11.2-24.9-24.9-24.9
      c-2.5,0-5,0.4-7.3,1.1c-5.3-12.5-17.8-20.9-31.6-20.9c-18,0-32.8,13.8-34.3,31.4c-0.2,0-0.5,0-0.7,0c-10.5,0-19.1,8.6-19.1,19.1
      c0,9.2,6.6,17.1,15.5,18.7C649.4,662.3,649.9,662.4,650.5,662.4z M641,643.3c0-6.3,5.2-11.5,11.5-11.5c1.1,0,2.2,0.2,3.3,0.5
      c1.2,0.3,2.5,0.1,3.4-0.6c1-0.8,1.5-1.9,1.5-3.2c0-0.4,0-0.9,0-1.3c0-14.8,12-26.8,26.8-26.8c11.9,0,22.5,8,25.7,19.3
      c0.3,1.1,1.1,2,2.1,2.4c1,0.4,2.2,0.4,3.2-0.1c2.4-1.2,5.1-1.9,7.8-1.9c9.5,0,17.3,7.8,17.3,17.3s-7.8,17.3-17.3,17.3h-74.8
      c-0.2,0-0.4-0.1-0.5-0.1C645.3,654,641,649.1,641,643.3z"/>
    <circle id="XMLID_33_" fill="#404041" cx="662.1" cy="680.2" r="6.5"/>
    <circle id="XMLID_42_" fill="#404041" cx="707.6" cy="680.2" r="6.5"/>
    <circle id="XMLID_43_" fill="#404041" cx="690.1" cy="696.1" r="4.5"/>
    <circle id="XMLID_94_" fill="#404041" cx="679.2" cy="687.2" r="2"/>
    <circle id="XMLID_95_" fill="#404041" cx="692.3" cy="680.2" r="3.7"/>
    <circle id="XMLID_131_" fill="#404041" cx="721.8" cy="671.7" r="2"/>
    <circle id="XMLID_132_" fill="#404041" cx="651.8" cy="671.7" r="2"/>
    <circle id="XMLID_133_" fill="#404041" cx="676.1" cy="674.7" r="3"/>
  </g>
</g>
</svg>
