<?xml version="1.0" encoding="utf-8"?>
<!-- Generator: Adobe Illustrator 19.0.0, SVG Export Plug-In . SVG Version: 6.00 Build 0)  -->
<!--width="1400px" height="980px" viewBox="0 0 1400 980" -->
<!--0 280 560 840 1130 width:260-->
<!--130 346 560 765 height: 196-->
<svg version="1.1" id="Layer_1" xmlns="http://www.w3.org/2000/svg" xmlns:xlink="http://www.w3.org/1999/xlink" x="0px" y="0px"
	 width="140px" height="96px" viewBox="840 130 260 196" enable-background="new 0 0 700 490" xml:space="preserve">
<g id="XMLID_1_">
  <path id="XMLID_204_" fill="#404041" d="M1003.9,201.8c1-0.7,1.6-1.9,1.6-3.2c0-1.3-0.7-2.4-1.8-3.1c-6.3-4-13.6-6.1-21.1-6.1
    c-21.8,0-39.6,17.8-39.6,39.6s17.8,39.6,39.6,39.6c8.3,0,16.3-2.6,23-7.4c1-0.7,1.6-1.9,1.6-3.2c0-1.3-0.7-2.4-1.8-3.1
    c-9.4-5.9-15-16-15-27.1C990.5,217.6,995.5,207.9,1003.9,201.8z M983,227.9c0,11.7,5,22.5,13.7,30c-4.3,2.1-9.1,3.2-14,3.2
    c-17.7,0-32-14.4-32-32c0-17.7,14.4-32,32-32c4.2,0,8.4,0.8,12.3,2.4C987.4,206.9,983,217.1,983,227.9z"/>
</g>
</svg>
