<?xml version="1.0" encoding="utf-8"?>
<!-- Generator: Adobe Illustrator 19.0.0, SVG Export Plug-In . SVG Version: 6.00 Build 0)  -->
<!--width="1400px" height="980px" viewBox="0 0 1400 980" -->
<!--0 280 560 840 1130 width:260-->
<!--130 346 560 765 height: 196-->
<svg version="1.1" id="Layer_1" xmlns="http://www.w3.org/2000/svg" xmlns:xlink="http://www.w3.org/1999/xlink" x="0px" y="0px"
	 width="140px" height="96px" viewBox="560 765 260 196" enable-background="new 0 0 700 490" xml:space="preserve">
<g id="XMLID_1_">
	<g id="XMLID_2_">
    <g id="XMLID_7_">
			<path id="XMLID_123_" fill="#404041" d="M741.6,827.2c0-3.3-1.3-6.4-3.6-8.7c-2.3-2.3-5.4-3.6-8.7-3.6s-6.4,1.3-8.7,3.6
				L663.9,875c-5.6-0.5-11.2,1.5-15.3,5.6c-7.5,7.5-7.5,19.8,0,27.3c3.8,3.8,8.7,5.6,13.6,5.6c4.9,0,9.9-1.9,13.6-5.6
				c4.1-4.1,6.1-9.8,5.6-15.5l56.5-56.5C740.3,833.6,741.6,830.5,741.6,827.2z M732.6,830.5l-57.8,57.8c-0.9,0.9-1.3,2.2-1,3.5
				c0.8,3.9-0.4,7.9-3.2,10.7c-4.6,4.6-12,4.6-16.6,0c-4.6-4.6-4.6-12,0-16.6c2.2-2.2,5.2-3.4,8.3-3.4c0.7,0,1.5,0.1,2.3,0.2
				c1.2,0.2,2.5-0.1,3.4-1l57.9-57.9c0.9-0.9,2.1-1.4,3.4-1.4s2.5,0.5,3.4,1.4c0.9,0.9,1.4,2.1,1.4,3.4
				C734,828.5,733.5,829.6,732.6,830.5z"/>
			<path id="XMLID_10_" fill="#404041" d="M699.5,859.8l-2.9-2.9l-27.7,27.7c-1.1,1.1-2.7,1.5-4.1,1c-3.1-0.9-6.7-0.1-9.1,2.4
				c-3.3,3.4-3.3,8.9-0.1,12.4c3.5,3.8,9.4,3.9,13,0.3c2.5-2.5,3.2-6,2.2-9.1c-0.5-1.5-0.1-3.1,1-4.2L699.5,859.8z"/>
		</g>
	</g>
</g>
</svg>
