<?xml version="1.0" encoding="utf-8"?>
<!-- Generator: Adobe Illustrator 19.0.0, SVG Export Plug-In . SVG Version: 6.00 Build 0)  -->
<!--width="1400px" height="980px" viewBox="0 0 1400 980" -->
<!--0  280 560-->
<svg version="1.1" id="Layer_1" xmlns="http://www.w3.org/2000/svg" xmlns:xlink="http://www.w3.org/1999/xlink" x="0px" y="0px"
	 width="700px" height="490px" viewBox="0 0 1400 980" enable-background="new 0 0 700 490" xml:space="preserve">
<g id="XMLID_1_">
	<g id="XMLID_2_">


		<g id="XMLID_62_">
			<path id="XMLID_19_" fill="#404041" d="M80.2,469.5c1.7,0,3.2-1.1,3.7-2.8l0.8-2.8c0.5-2-0.7-4.1-2.7-4.6c-2-0.5-4.1,0.7-4.6,2.7
				l-0.8,2.8c-0.5,2,0.7,4.1,2.7,4.6C79.5,469.5,79.8,469.5,80.2,469.5z"/>
			<path id="XMLID_21_" fill="#404041" d="M93.9,469.5c1.7,0,3.2-1.1,3.7-2.8l0.8-2.8c0.5-2-0.7-4.1-2.7-4.6c-2-0.5-4.1,0.7-4.6,2.7
				l-0.8,2.8c-0.5,2,0.7,4.1,2.7,4.6C93.2,469.5,93.6,469.5,93.9,469.5z"/>
			<path id="XMLID_22_" fill="#404041" d="M149.2,469.5c1.7,0,3.2-1.1,3.7-2.8l0.8-2.8c0.5-2-0.7-4.1-2.7-4.6
				c-2-0.5-4.1,0.7-4.6,2.7l-0.8,2.8c-0.5,2,0.7,4.1,2.7,4.6C148.6,469.5,148.9,469.5,149.2,469.5z"/>
			<path id="XMLID_39_" fill="#404041" d="M163,469.5c1.7,0,3.2-1.1,3.7-2.8l0.8-2.8c0.5-2-0.7-4.1-2.7-4.6c-2-0.5-4.1,0.7-4.6,2.7
				l-0.8,2.8c-0.5,2,0.7,4.1,2.7,4.6C162.3,469.5,162.7,469.5,163,469.5z"/>
			<path id="XMLID_41_" fill="#404041" d="M80.2,486.6c1.7,0,3.2-1.1,3.7-2.8l0.8-2.8c0.5-2-0.7-4.1-2.7-4.6c-2-0.5-4.1,0.7-4.6,2.7
				l-0.8,2.8c-0.5,2,0.7,4.1,2.7,4.6C79.5,486.6,79.8,486.6,80.2,486.6z"/>
			<path id="XMLID_48_" fill="#404041" d="M93.9,486.6c1.7,0,3.2-1.1,3.7-2.8l0.8-2.8c0.5-2-0.7-4.1-2.7-4.6c-2-0.5-4.1,0.7-4.6,2.7
				l-0.8,2.8c-0.5,2,0.7,4.1,2.7,4.6C93.2,486.6,93.6,486.6,93.9,486.6z"/>
			<path id="XMLID_61_" fill="#404041" d="M149.2,486.6c1.7,0,3.2-1.1,3.7-2.8l0.8-2.8c0.5-2-0.7-4.1-2.7-4.6
				c-2-0.5-4.1,0.7-4.6,2.7l-0.8,2.8c-0.5,2,0.7,4.1,2.7,4.6C148.6,486.6,148.9,486.6,149.2,486.6z"/>
			<path id="XMLID_63_" fill="#404041" d="M163,486.6c1.7,0,3.2-1.1,3.7-2.8l0.8-2.8c0.5-2-0.7-4.1-2.7-4.6c-2-0.5-4.1,0.7-4.6,2.7
				l-0.8,2.8c-0.5,2,0.7,4.1,2.7,4.6C162.3,486.6,162.7,486.6,163,486.6z"/>
			<path id="XMLID_148_" fill="#404041" d="M160.5,451.1c13.7,0,24.9-11.2,24.9-24.9c0-13.7-11.2-24.9-24.9-24.9
				c-2.5,0-5,0.4-7.3,1.1c-5.3-12.5-17.8-20.9-31.6-20.9c-18,0-32.8,13.8-34.3,31.4c-0.2,0-0.5,0-0.7,0c-10.5,0-19.1,8.6-19.1,19.1
				c0,9.2,6.6,17.1,15.5,18.7c0.5,0.2,1,0.3,1.6,0.3h23.1l-4.7,7.7c-0.9,1.5-0.7,3.4,0.5,4.7l10.9,10.9l-7.6,19.6
				c-0.6,1.7,0,3.6,1.5,4.6c0.6,0.4,1.3,0.6,2,0.6c1,0,2-0.4,2.7-1.1l23.8-24.4c1.4-1.4,1.4-3.6,0.2-5.1l-5.7-6.9l13.7-10.5H160.5z
				 M85.7,443.5c-0.2,0-0.4-0.1-0.5-0.1c-5.7-0.7-10-5.6-10-11.4c0-6.3,5.2-11.5,11.5-11.5c1.1,0,2.2,0.2,3.3,0.5
				c1.2,0.4,2.5,0.1,3.4-0.6c1-0.8,1.5-1.9,1.5-3.2c0-0.4,0-0.9,0-1.3c0-14.8,12-26.8,26.8-26.8c11.9,0,22.5,8,25.7,19.3
				c0.3,1.1,1.1,2,2.1,2.4c1,0.4,2.2,0.4,3.2-0.1c2.4-1.2,5.1-1.9,7.8-1.9c9.5,0,17.3,7.8,17.3,17.3s-7.8,17.3-17.3,17.3H85.7z
				 M123.7,457.9c-0.8,0.6-1.3,1.6-1.5,2.6c-0.1,1,0.2,2.1,0.8,2.8l6.1,7.3l-8.6,8.8l1.8-4.7c0.5-1.4,0.2-3-0.9-4l-10.5-10.5
				l5.6-9.1h16L123.7,457.9z"/>
		</g>

		<path id="XMLID_107_" fill="#404041" d="M1206,265.2h97.8c17.1,0,31-13.9,31-31c0-17.1-13.9-31-31-31c-3.5,0-6.8,0.6-10,1.7
			c-6.5-16.2-22.4-27.2-40.1-27.2c-22.9,0-41.8,18-43.2,40.6c-0.6-0.1-1.3-0.1-1.9-0.1c-13,0-23.5,10.5-23.5,23.5
			c0,11.4,8.2,21.1,19.3,23.1C1204.8,265,1205.4,265.2,1206,265.2z M1192.6,241.7c0-8.8,7.1-15.9,15.9-15.9c1.5,0,3.1,0.2,4.6,0.7
			c1.2,0.4,2.5,0.1,3.4-0.6c1-0.8,1.5-1.9,1.5-3.2c0-0.6,0-1.1,0-1.7c0-19.7,16-35.7,35.7-35.7c15.8,0,29.9,10.6,34.2,25.7
			c0.3,1.1,1.1,2,2.1,2.4c1,0.5,2.2,0.4,3.2-0.1c3.3-1.7,6.9-2.5,10.6-2.5c12.9,0,23.4,10.5,23.4,23.4c0,12.9-10.5,23.4-23.4,23.4
			h-96.6c-0.2-0.1-0.4-0.1-0.7-0.1C1198.6,256.5,1192.6,249.7,1192.6,241.7z"/>
		<path id="XMLID_139_" fill="#404041" d="M119.4,593.4c1.5-0.7,2.3-2.1,2.2-3.7c-0.1-1.6-1.2-2.9-2.7-3.4
			c-4.7-1.4-9.6-1.9-14.6-1.5c-23.1,1.6-40.6,21.8-38.9,44.9c0.9,12.6,7.3,23.9,17.2,31.1c-7.4,2.6-12.7,9.7-12.7,18
			c0,9.2,6.6,17.1,15.5,18.7c0.5,0.2,1,0.3,1.6,0.3h75.8c13.7,0,24.9-11.2,24.9-24.9c0-13.7-11.2-24.9-24.9-24.9
			c-2.5,0-5,0.4-7.3,1.1c-5.3-12.5-17.8-20.9-31.6-20.9c-8.7,0-16.7,3.3-22.7,8.6c-1.1-3-1.8-6.2-2.1-9.5
			C98.1,612.9,106.3,599.3,119.4,593.4z M123.9,635.8c11.9,0,22.5,8,25.7,19.3c0.3,1.1,1.1,2,2.1,2.4c1,0.4,2.2,0.4,3.2-0.1
			c2.4-1.2,5.1-1.9,7.8-1.9c9.5,0,17.3,7.8,17.3,17.3c0,9.5-7.8,17.3-17.3,17.3H88c-0.2,0-0.4-0.1-0.5-0.1c-5.7-0.7-10-5.6-10-11.4
			c0-6.3,5.2-11.5,11.5-11.5c1.1,0,2.2,0.2,3.3,0.5c1.2,0.4,2.5,0.1,3.4-0.6s1.5-1.9,1.5-3.2c0-0.4,0-0.9,0-1.3
			C97.1,647.8,109.1,635.8,123.9,635.8z M91.6,627.8c0.4,5.4,1.7,10.5,4.1,15.3c-2.7,4-4.7,8.5-5.6,13.5
			c-9.9-5.7-16.3-15.8-17.1-27.4c-1.3-18.9,13-35.4,31.9-36.8c0.7-0.1,1.4-0.1,2.1-0.1C96.6,600.8,90.6,614,91.6,627.8z"/>
		<path id="XMLID_82_" fill="#404041" d="M470.8,662.1c8.1-1.4,14-8.2,14-16.2c0-9.1-7.7-16.5-17.2-16.5c-0.1,0-0.1,0-0.2,0
			c-1.6-14.7-14.7-26.1-30.5-26.1c-12.1,0-23.1,6.9-28,17.3c-2-0.6-4.1-0.8-6.2-0.8c-8.9,0-17,5.2-20.5,12.9
			c-15.3,2.5-27.3,15.3-28.6,31c-0.2,0-0.5,0-0.7,0c-10.5,0-19.1,8.6-19.1,19.1c0,9.2,6.6,17.1,15.5,18.7c0.5,0.2,1,0.3,1.6,0.3
			h75.8c13.7,0,24.9-11.2,24.9-24.9c0-5.4-1.7-10.4-4.7-14.5h22.3C469.9,662.4,470.4,662.3,470.8,662.1z M426.9,694.1h-74.8
			c-0.2,0-0.4-0.1-0.5-0.1c-5.7-0.7-10-5.6-10-11.4c0-6.3,5.2-11.5,11.5-11.5c1.1,0,2.2,0.2,3.3,0.5c1.2,0.4,2.5,0.1,3.4-0.6
			c1-0.8,1.5-1.9,1.5-3.2c0-0.4,0-0.9,0-1.3c0-14.8,12-26.8,26.8-26.8c11.9,0,22.5,8,25.7,19.3c0.3,1.1,1.1,2,2.1,2.4
			c1,0.4,2.2,0.4,3.2-0.1c2.4-1.2,5.1-1.9,7.8-1.9c9.5,0,17.3,7.8,17.3,17.3C444.2,686.4,436.4,694.1,426.9,694.1z M468.4,654.8h-30
			c-3.4-1.8-7.4-2.8-11.5-2.8c-2.5,0-5,0.4-7.3,1.1c-4.9-11.4-15.8-19.4-28.2-20.7c2.7-3.1,6.9-5,11.4-5c2.4,0,4.6,0.5,6.7,1.5
			c1,0.5,2.1,0.5,3.2,0.1c1-0.4,1.8-1.3,2.1-2.4c2.8-9.2,11.9-15.7,22.2-15.7c12.7,0,23.1,9.7,23.1,21.7c0,0.3,0,0.7,0,1
			c-0.1,1.2,0.5,2.4,1.4,3.2c1,0.8,2.2,1,3.4,0.7c0.9-0.3,1.9-0.4,2.8-0.4c5.3,0,9.6,4,9.6,8.9c0,4.5-3.6,8.3-8.4,8.8
			C468.8,654.7,468.6,654.8,468.4,654.8z"/>
		<g id="XMLID_6_">
			<path id="XMLID_15_" fill="#404041" d="M651.2,466.8c1.7,0,3.2-1.1,3.7-2.8l0.7-2.6c0.5-2-0.7-4.1-2.7-4.6
				c-2-0.5-4.1,0.7-4.6,2.7l-0.7,2.6c-0.5,2,0.7,4.1,2.7,4.6C650.5,466.7,650.8,466.8,651.2,466.8z"/>
			<path id="XMLID_31_" fill="#404041" d="M664.8,466.8c1.7,0,3.2-1.1,3.7-2.8l0.7-2.6c0.5-2-0.7-4.1-2.7-4.6
				c-2-0.5-4.1,0.7-4.6,2.7l-0.7,2.6c-0.5,2,0.7,4.1,2.7,4.6C664.1,466.7,664.4,466.8,664.8,466.8z"/>
			<path id="XMLID_35_" fill="#404041" d="M678.4,466.8c1.7,0,3.2-1.1,3.7-2.8l0.7-2.6c0.5-2-0.7-4.1-2.7-4.6
				c-2-0.5-4.1,0.7-4.6,2.7l-0.7,2.6c-0.5,2,0.7,4.1,2.7,4.6C677.7,466.7,678,466.8,678.4,466.8z"/>
			<path id="XMLID_36_" fill="#404041" d="M692,466.8c1.7,0,3.2-1.1,3.7-2.8l0.7-2.6c0.5-2-0.7-4.1-2.7-4.6c-2-0.5-4.1,0.7-4.6,2.7
				l-0.7,2.6c-0.5,2,0.7,4.1,2.7,4.6C691.3,466.7,691.6,466.8,692,466.8z"/>
			<path id="XMLID_37_" fill="#404041" d="M705.6,466.8c1.7,0,3.2-1.1,3.7-2.8l0.7-2.6c0.5-2-0.7-4.1-2.7-4.6
				c-2-0.5-4.1,0.7-4.6,2.7l-0.7,2.6c-0.5,2,0.7,4.1,2.7,4.6C704.9,466.7,705.2,466.8,705.6,466.8z"/>
			<path id="XMLID_38_" fill="#404041" d="M719.2,466.8c1.7,0,3.2-1.1,3.7-2.8l0.7-2.6c0.5-2-0.7-4.1-2.7-4.6
				c-2-0.5-4.1,0.7-4.6,2.7l-0.7,2.6c-0.5,2,0.7,4.1,2.7,4.6C718.5,466.7,718.8,466.8,719.2,466.8z"/>
			<path id="XMLID_40_" fill="#404041" d="M732.8,466.8c1.7,0,3.2-1.1,3.7-2.8l0.7-2.6c0.5-2-0.7-4.1-2.7-4.6
				c-2-0.5-4.1,0.7-4.6,2.7l-0.7,2.6c-0.5,2,0.7,4.1,2.7,4.6C732.1,466.7,732.4,466.8,732.8,466.8z"/>
			<path id="XMLID_44_" fill="#404041" d="M651.2,484c1.7,0,3.2-1.1,3.7-2.8l0.7-2.6c0.5-2-0.7-4.1-2.7-4.6c-2-0.5-4.1,0.7-4.6,2.7
				l-0.7,2.6c-0.5,2,0.7,4.1,2.7,4.6C650.5,484,650.8,484,651.2,484z"/>
			<path id="XMLID_105_" fill="#404041" d="M664.8,484c1.7,0,3.2-1.1,3.7-2.8l0.7-2.6c0.5-2-0.7-4.1-2.7-4.6c-2-0.5-4.1,0.7-4.6,2.7
				l-0.7,2.6c-0.5,2,0.7,4.1,2.7,4.6C664.1,484,664.4,484,664.8,484z"/>
			<path id="XMLID_106_" fill="#404041" d="M678.4,484c1.7,0,3.2-1.1,3.7-2.8l0.7-2.6c0.5-2-0.7-4.1-2.7-4.6c-2-0.5-4.1,0.7-4.6,2.7
				l-0.7,2.6c-0.5,2,0.7,4.1,2.7,4.6C677.7,484,678,484,678.4,484z"/>
			<path id="XMLID_108_" fill="#404041" d="M692,484c1.7,0,3.2-1.1,3.7-2.8l0.7-2.6c0.5-2-0.7-4.1-2.7-4.6c-2-0.5-4.1,0.7-4.6,2.7
				l-0.7,2.6c-0.5,2,0.7,4.1,2.7,4.6C691.3,484,691.6,484,692,484z"/>
			<path id="XMLID_110_" fill="#404041" d="M705.6,484c1.7,0,3.2-1.1,3.7-2.8l0.7-2.6c0.5-2-0.7-4.1-2.7-4.6c-2-0.5-4.1,0.7-4.6,2.7
				l-0.7,2.6c-0.5,2,0.7,4.1,2.7,4.6C704.9,484,705.2,484,705.6,484z"/>
			<path id="XMLID_111_" fill="#404041" d="M719.2,484c1.7,0,3.2-1.1,3.7-2.8l0.7-2.6c0.5-2-0.7-4.1-2.7-4.6c-2-0.5-4.1,0.7-4.6,2.7
				l-0.7,2.6c-0.5,2,0.7,4.1,2.7,4.6C718.5,484,718.8,484,719.2,484z"/>
			<path id="XMLID_112_" fill="#404041" d="M732.8,484c1.7,0,3.2-1.1,3.7-2.8l0.7-2.6c0.5-2-0.7-4.1-2.7-4.6c-2-0.5-4.1,0.7-4.6,2.7
				l-0.7,2.6c-0.5,2,0.7,4.1,2.7,4.6C732.1,484,732.4,484,732.8,484z"/>
			<path id="XMLID_113_" fill="#404041" d="M651.2,501.3c1.7,0,3.2-1.1,3.7-2.8l0.7-2.6c0.5-2-0.7-4.1-2.7-4.6
				c-2-0.5-4.1,0.7-4.6,2.7l-0.7,2.6c-0.5,2,0.7,4.1,2.7,4.6C650.5,501.3,650.8,501.3,651.2,501.3z"/>
			<path id="XMLID_114_" fill="#404041" d="M664.8,501.3c1.7,0,3.2-1.1,3.7-2.8l0.7-2.6c0.5-2-0.7-4.1-2.7-4.6
				c-2-0.5-4.1,0.7-4.6,2.7l-0.7,2.6c-0.5,2,0.7,4.1,2.7,4.6C664.1,501.3,664.4,501.3,664.8,501.3z"/>
			<path id="XMLID_115_" fill="#404041" d="M678.4,501.3c1.7,0,3.2-1.1,3.7-2.8l0.7-2.6c0.5-2-0.7-4.1-2.7-4.6
				c-2-0.5-4.1,0.7-4.6,2.7l-0.7,2.6c-0.5,2,0.7,4.1,2.7,4.6C677.7,501.3,678,501.3,678.4,501.3z"/>
			<path id="XMLID_126_" fill="#404041" d="M692,501.3c1.7,0,3.2-1.1,3.7-2.8l0.7-2.6c0.5-2-0.7-4.1-2.7-4.6c-2-0.5-4.1,0.7-4.6,2.7
				l-0.7,2.6c-0.5,2,0.7,4.1,2.7,4.6C691.3,501.3,691.6,501.3,692,501.3z"/>
			<path id="XMLID_127_" fill="#404041" d="M705.6,501.3c1.7,0,3.2-1.1,3.7-2.8l0.7-2.6c0.5-2-0.7-4.1-2.7-4.6
				c-2-0.5-4.1,0.7-4.6,2.7l-0.7,2.6c-0.5,2,0.7,4.1,2.7,4.6C704.9,501.3,705.2,501.3,705.6,501.3z"/>
			<path id="XMLID_154_" fill="#404041" d="M719.2,501.3c1.7,0,3.2-1.1,3.7-2.8l0.7-2.6c0.5-2-0.7-4.1-2.7-4.6
				c-2-0.5-4.1,0.7-4.6,2.7l-0.7,2.6c-0.5,2,0.7,4.1,2.7,4.6C718.5,501.3,718.8,501.3,719.2,501.3z"/>
			<path id="XMLID_157_" fill="#404041" d="M732.8,501.3c1.7,0,3.2-1.1,3.7-2.8l0.7-2.6c0.5-2-0.7-4.1-2.7-4.6
				c-2-0.5-4.1,0.7-4.6,2.7l-0.7,2.6c-0.5,2,0.7,4.1,2.7,4.6C732.1,501.3,732.4,501.3,732.8,501.3z"/>
			<path id="XMLID_201_" fill="#404041" d="M650.5,451.1h75.8c13.7,0,24.9-11.2,24.9-24.9c0-13.7-11.2-24.9-24.9-24.9
				c-2.5,0-5,0.4-7.3,1.1c-5.3-12.5-17.8-20.9-31.6-20.9c-18,0-32.8,13.8-34.3,31.4c-0.2,0-0.5,0-0.7,0c-10.5,0-19.1,8.6-19.1,19.1
				c0,9.2,6.6,17.1,15.5,18.7C649.4,451,649.9,451.1,650.5,451.1z M641,432c0-6.3,5.2-11.5,11.5-11.5c1.1,0,2.2,0.2,3.3,0.5
				c1.2,0.4,2.5,0.1,3.4-0.6c1-0.8,1.5-1.9,1.5-3.2c0-0.4,0-0.9,0-1.3c0-14.8,12-26.8,26.8-26.8c11.9,0,22.5,8,25.7,19.3
				c0.3,1.1,1.1,2,2.1,2.4c1,0.4,2.2,0.4,3.2-0.1c2.4-1.2,5.1-1.9,7.8-1.9c9.5,0,17.3,7.8,17.3,17.3s-7.8,17.3-17.3,17.3h-74.8
				c-0.2,0-0.4-0.1-0.5-0.1C645.3,442.7,641,437.8,641,432z"/>
		</g>
		<g id="XMLID_53_">
			<path id="XMLID_225_" fill="#404041" d="M933.4,451.1h75.8c13.7,0,24.9-11.2,24.9-24.9c0-13.7-11.2-24.9-24.9-24.9
				c-2.5,0-5,0.4-7.3,1.1c-5.3-12.5-17.8-20.9-31.6-20.9c-18,0-32.8,13.8-34.3,31.4c-0.2,0-0.5,0-0.7,0c-10.5,0-19.1,8.6-19.1,19.1
				c0,9.2,6.6,17.1,15.5,18.7C932.3,451,932.8,451.1,933.4,451.1z M923.9,432c0-6.3,5.2-11.5,11.5-11.5c1.1,0,2.2,0.2,3.3,0.5
				c1.2,0.4,2.5,0.1,3.4-0.6c1-0.8,1.5-1.9,1.5-3.2c0-0.4,0-0.9,0-1.3c0-14.8,12-26.8,26.8-26.8c11.9,0,22.5,8,25.7,19.3
				c0.3,1.1,1.1,2,2.1,2.4c1,0.5,2.2,0.4,3.2-0.1c2.4-1.2,5.1-1.9,7.8-1.9c9.5,0,17.3,7.8,17.3,17.3s-7.8,17.3-17.3,17.3h-74.8
				c-0.2,0-0.4-0.1-0.5-0.1C928.2,442.7,923.9,437.8,923.9,432z"/>
			<path id="XMLID_54_" fill="#404041" d="M937.2,469.3c1.7,0,3.2-1.1,3.7-2.8l0.7-2.6c0.5-2-0.7-4.1-2.7-4.6
				c-2-0.5-4.1,0.7-4.6,2.7l-0.7,2.6c-0.5,2,0.7,4.1,2.7,4.6C936.6,469.3,936.9,469.3,937.2,469.3z"/>
			<path id="XMLID_84_" fill="#404041" d="M954.4,489.1c1.7,0,3.2-1.1,3.7-2.8l0.7-2.6c0.5-2-0.7-4.1-2.7-4.6
				c-2-0.5-4.1,0.7-4.6,2.7l-0.7,2.6c-0.5,2,0.7,4.1,2.7,4.6C953.7,489.1,954.1,489.1,954.4,489.1z"/>
			<path id="XMLID_85_" fill="#404041" d="M994.3,489.1c1.7,0,3.2-1.1,3.7-2.8l0.7-2.6c0.5-2-0.7-4.1-2.7-4.6
				c-2-0.5-4.1,0.7-4.6,2.7l-0.7,2.6c-0.5,2,0.7,4.1,2.7,4.6C993.6,489.1,994,489.1,994.3,489.1z"/>
			<path id="XMLID_92_" fill="#404041" d="M974.9,469.3c1.7,0,3.2-1.1,3.7-2.8l0.7-2.6c0.5-2-0.7-4.1-2.7-4.6
				c-2-0.5-4.1,0.7-4.6,2.7l-0.7,2.6c-0.5,2,0.7,4.1,2.7,4.6C974.2,469.3,974.5,469.3,974.9,469.3z"/>
			<path id="XMLID_93_" fill="#404041" d="M1012.5,469.3c1.7,0,3.2-1.1,3.7-2.8l0.7-2.6c0.5-2-0.7-4.1-2.7-4.6
				c-2-0.5-4.1,0.7-4.6,2.7l-0.7,2.6c-0.5,2,0.7,4.1,2.7,4.6C1011.8,469.3,1012.2,469.3,1012.5,469.3z"/>
		</g>
		<g id="XMLID_32_">
			<path id="XMLID_160_" fill="#404041" d="M650.5,662.4h75.8c13.7,0,24.9-11.2,24.9-24.9c0-13.7-11.2-24.9-24.9-24.9
				c-2.5,0-5,0.4-7.3,1.1c-5.3-12.5-17.8-20.9-31.6-20.9c-18,0-32.8,13.8-34.3,31.4c-0.2,0-0.5,0-0.7,0c-10.5,0-19.1,8.6-19.1,19.1
				c0,9.2,6.6,17.1,15.5,18.7C649.4,662.3,649.9,662.4,650.5,662.4z M641,643.3c0-6.3,5.2-11.5,11.5-11.5c1.1,0,2.2,0.2,3.3,0.5
				c1.2,0.3,2.5,0.1,3.4-0.6c1-0.8,1.5-1.9,1.5-3.2c0-0.4,0-0.9,0-1.3c0-14.8,12-26.8,26.8-26.8c11.9,0,22.5,8,25.7,19.3
				c0.3,1.1,1.1,2,2.1,2.4c1,0.4,2.2,0.4,3.2-0.1c2.4-1.2,5.1-1.9,7.8-1.9c9.5,0,17.3,7.8,17.3,17.3s-7.8,17.3-17.3,17.3h-74.8
				c-0.2,0-0.4-0.1-0.5-0.1C645.3,654,641,649.1,641,643.3z"/>
			<circle id="XMLID_33_" fill="#404041" cx="662.1" cy="680.2" r="6.5"/>
			<circle id="XMLID_42_" fill="#404041" cx="707.6" cy="680.2" r="6.5"/>
			<circle id="XMLID_43_" fill="#404041" cx="690.1" cy="696.1" r="4.5"/>
			<circle id="XMLID_94_" fill="#404041" cx="679.2" cy="687.2" r="2"/>
			<circle id="XMLID_95_" fill="#404041" cx="692.3" cy="680.2" r="3.7"/>
			<circle id="XMLID_131_" fill="#404041" cx="721.8" cy="671.7" r="2"/>
			<circle id="XMLID_132_" fill="#404041" cx="651.8" cy="671.7" r="2"/>
			<circle id="XMLID_133_" fill="#404041" cx="676.1" cy="674.7" r="3"/>
		</g>
		<g id="XMLID_55_">
			<path id="XMLID_236_" fill="#404041" d="M1247.1,475.1h52.6c8,0,15.5-4.2,19.6-11.1c2.5-3.4,3.9-7.5,3.9-11.8
				c0-11-8.9-19.9-19.9-19.9c-0.6,0-1.1,0-1.7,0.1c-4.7-11.7-16.1-19.6-28.9-19.6c-0.2,0-0.4,0-0.6,0c-3.2-12.8-14.7-22-28.2-22
				c-16,0-29.1,13-29.1,29.1c0,9.4,4.5,18,11.9,23.5c-1.6,2.6-2.5,5.6-2.5,8.9C1224.2,464.8,1234.5,475.1,1247.1,475.1z
				 M1269.4,420.6C1269.5,420.6,1269.5,420.6,1269.4,420.6c1.1-0.2,2.2-0.2,3.3-0.2c10.6,0,19.9,7.1,22.7,17.3
				c0.6,2,2.6,3.2,4.6,2.6c1.1-0.3,2.2-0.4,3.2-0.4c6.8,0,12.3,5.5,12.3,12.3c0,2.7-0.9,5.3-2.5,7.4c-0.1,0.1-0.2,0.2-0.2,0.4
				c-2.7,4.7-7.8,7.6-13.2,7.6h-52.6c-8.5,0-15.3-6.9-15.3-15.3c0-5.2,4.3-9.5,9.5-9.5c1.1,0,2.1,0.2,3.1,0.5
				c1.1,0.4,2.2,0.3,3.2-0.3c1-0.6,1.6-1.6,1.8-2.7C1251.1,429.8,1259.2,422,1269.4,420.6C1269.4,420.6,1269.4,420.6,1269.4,420.6z
				 M1222.4,419.8c0-11.9,9.6-21.5,21.5-21.5c9.7,0,18,6.5,20.7,15.5c-10.4,2.8-18.7,10.8-21.7,21.3c-0.5,0-1-0.1-1.5-0.1
				c-3.4,0-6.5,1-9.2,2.7C1226.1,433.9,1222.4,427.2,1222.4,419.8z"/>
			<path id="XMLID_56_" fill="#404041" d="M1247.7,385.1v-8.8c0-2.1-1.7-3.8-3.8-3.8c-2.1,0-3.8,1.7-3.8,3.8v8.8
				c0,2.1,1.7,3.8,3.8,3.8C1246,388.9,1247.7,387.2,1247.7,385.1z"/>
			<path id="XMLID_73_" fill="#404041" d="M1226.5,393.6c0.6,0,1.3-0.2,1.9-0.5c1.8-1,2.4-3.4,1.4-5.2l-4.4-7.7
				c-1-1.8-3.4-2.4-5.2-1.4c-1.8,1-2.4,3.4-1.4,5.2l4.4,7.7C1224,392.9,1225.2,393.6,1226.5,393.6z"/>
			<path id="XMLID_87_" fill="#404041" d="M1211.9,405.8c0.6,0.3,1.2,0.5,1.9,0.5c1.3,0,2.6-0.7,3.3-1.9c1-1.8,0.4-4.1-1.4-5.2
				l-7.7-4.4c-1.8-1-4.1-0.4-5.2,1.4c-1,1.8-0.4,4.1,1.4,5.2L1211.9,405.8z"/>
			<path id="XMLID_88_" fill="#404041" d="M1209.2,423.6c2.1,0,3.8-1.7,3.8-3.8c0-2.1-1.7-3.8-3.8-3.8h-8.8c-2.1,0-3.8,1.7-3.8,3.8
				c0,2.1,1.7,3.8,3.8,3.8H1209.2z"/>
			<path id="XMLID_89_" fill="#404041" d="M1206.2,445.4c0.6,0,1.3-0.2,1.9-0.5l7.7-4.4c1.8-1,2.4-3.4,1.4-5.2
				c-1-1.8-3.4-2.4-5.2-1.4l-7.7,4.4c-1.8,1-2.4,3.4-1.4,5.2C1203.6,444.7,1204.9,445.4,1206.2,445.4z"/>
			<path id="XMLID_90_" fill="#404041" d="M1273.9,406.3c0.6,0,1.3-0.2,1.9-0.5l7.7-4.4c1.8-1,2.4-3.4,1.4-5.2
				c-1-1.8-3.4-2.4-5.2-1.4l-7.7,4.4c-1.8,1-2.4,3.4-1.4,5.2C1271.4,405.6,1272.6,406.3,1273.9,406.3z"/>
			<path id="XMLID_91_" fill="#404041" d="M1261.2,393.6c1.3,0,2.6-0.7,3.3-1.9l4.4-7.7c1-1.8,0.4-4.1-1.4-5.2
				c-1.8-1-4.1-0.4-5.2,1.4l-4.4,7.7c-1,1.8-0.4,4.1,1.4,5.2C1259.9,393.4,1260.6,393.6,1261.2,393.6z"/>
		</g>
		<g id="XMLID_47_">
			<path id="XMLID_135_" fill="#404041" d="M962.4,692.3h52.6c8,0,15.5-4.2,19.6-11.1c2.5-3.4,3.9-7.5,3.9-11.8
				c0-11-8.9-19.9-19.9-19.9c-0.6,0-1.1,0-1.7,0.1c-4.7-11.7-16.1-19.6-28.9-19.6c-0.2,0-0.4,0-0.6,0c-3.2-12.8-14.7-22-28.2-22
				c-16,0-29.1,13-29.1,29.1c0,9.4,4.5,18,11.9,23.5c-1.6,2.6-2.5,5.6-2.5,8.9C939.5,682,949.8,692.3,962.4,692.3z M984.8,637.8
				C984.8,637.8,984.8,637.8,984.8,637.8c1.1-0.2,2.2-0.2,3.3-0.2c10.6,0,19.9,7.1,22.7,17.3c0.6,2,2.6,3.2,4.6,2.6
				c1.1-0.3,2.1-0.4,3.2-0.4c6.8,0,12.3,5.5,12.3,12.3c0,2.7-0.9,5.3-2.5,7.4c-0.1,0.1-0.2,0.2-0.2,0.4c-2.7,4.7-7.8,7.6-13.2,7.6
				h-52.6c-8.5,0-15.3-6.9-15.3-15.3c0-5.2,4.3-9.5,9.5-9.5c1.1,0,2.1,0.2,3.1,0.5c1.1,0.4,2.2,0.3,3.2-0.3c1-0.6,1.6-1.6,1.8-2.7
				C966.4,647,974.6,639.2,984.8,637.8C984.7,637.8,984.8,637.8,984.8,637.8z M937.7,637c0-11.9,9.6-21.5,21.5-21.5
				c9.7,0,18,6.5,20.7,15.5c-10.4,2.8-18.7,10.8-21.7,21.3c-0.5,0-1-0.1-1.5-0.1c-3.4,0-6.5,1-9.2,2.7
				C941.4,651,937.7,644.4,937.7,637z"/>
			<path id="XMLID_49_" fill="#404041" d="M963,602.3v-8.8c0-2.1-1.7-3.8-3.8-3.8c-2.1,0-3.8,1.7-3.8,3.8v8.8c0,2.1,1.7,3.8,3.8,3.8
				C961.3,606.1,963,604.4,963,602.3z"/>
			<path id="XMLID_50_" fill="#404041" d="M941.9,610.8c0.6,0,1.3-0.2,1.9-0.5c1.8-1,2.4-3.4,1.4-5.2l-4.4-7.7
				c-1-1.8-3.4-2.4-5.2-1.4c-1.8,1-2.4,3.4-1.4,5.2l4.4,7.7C939.3,610.1,940.6,610.8,941.9,610.8z"/>
			<path id="XMLID_52_" fill="#404041" d="M927.3,623c0.6,0.3,1.2,0.5,1.9,0.5c1.3,0,2.6-0.7,3.3-1.9c1-1.8,0.4-4.1-1.4-5.2
				l-7.7-4.4c-1.8-1-4.1-0.4-5.2,1.4c-1,1.8-0.4,4.1,1.4,5.2L927.3,623z"/>
			<path id="XMLID_59_" fill="#404041" d="M924.5,640.8c2.1,0,3.8-1.7,3.8-3.8c0-2.1-1.7-3.8-3.8-3.8h-8.8c-2.1,0-3.8,1.7-3.8,3.8
				c0,2.1,1.7,3.8,3.8,3.8H924.5z"/>
			<path id="XMLID_68_" fill="#404041" d="M921.5,662.6c0.6,0,1.3-0.2,1.9-0.5l7.7-4.4c1.8-1,2.4-3.4,1.4-5.2
				c-1-1.8-3.4-2.4-5.2-1.4l-7.7,4.4c-1.8,1-2.4,3.4-1.4,5.2C918.9,661.9,920.2,662.6,921.5,662.6z"/>
			<path id="XMLID_72_" fill="#404041" d="M989.3,623.5c0.6,0,1.3-0.2,1.9-0.5l7.7-4.4c1.8-1,2.4-3.4,1.4-5.2
				c-1-1.8-3.4-2.4-5.2-1.4l-7.7,4.4c-1.8,1-2.4,3.4-1.4,5.2C986.7,622.8,988,623.5,989.3,623.5z"/>
			<path id="XMLID_86_" fill="#404041" d="M976.6,610.8c1.3,0,2.6-0.7,3.3-1.9l4.4-7.7c1-1.8,0.4-4.1-1.4-5.2
				c-1.8-1-4.1-0.4-5.2,1.4l-4.4,7.7c-1,1.8-0.4,4.1,1.4,5.2C975.3,610.6,975.9,610.8,976.6,610.8z"/>
			<path id="XMLID_97_" fill="#404041" d="M957.5,708.1c1.7,0,3.2-1.1,3.7-2.8l0.6-2.1c0.5-2-0.7-4.1-2.7-4.6
				c-2-0.5-4.1,0.7-4.6,2.7l-0.6,2.1c-0.5,2,0.7,4.1,2.7,4.6C956.9,708.1,957.2,708.1,957.5,708.1z"/>
			<path id="XMLID_98_" fill="#404041" d="M977.9,708.1c1.7,0,3.2-1.1,3.7-2.8l0.6-2.1c0.5-2-0.7-4.1-2.7-4.6
				c-2-0.5-4.1,0.7-4.6,2.7l-0.6,2.1c-0.5,2,0.7,4.1,2.7,4.6C977.2,708.1,977.5,708.1,977.9,708.1z"/>
			<path id="XMLID_99_" fill="#404041" d="M998.2,708.1c1.7,0,3.2-1.1,3.7-2.8l0.6-2.1c0.5-2-0.7-4.1-2.7-4.6
				c-2-0.5-4.1,0.7-4.6,2.7l-0.6,2.1c-0.5,2,0.7,4.1,2.7,4.6C997.5,708.1,997.9,708.1,998.2,708.1z"/>
			<path id="XMLID_101_" fill="#404041" d="M1018.5,708.1c1.7,0,3.2-1.1,3.7-2.8l0.6-2.1c0.5-2-0.7-4.1-2.7-4.6
				c-2-0.5-4.1,0.7-4.6,2.7l-0.6,2.1c-0.5,2,0.7,4.1,2.7,4.6C1017.9,708.1,1018.2,708.1,1018.5,708.1z"/>
		</g>
		<path id="XMLID_102_" fill="#404041" d="M360.1,877c-2-0.5-4.1,0.7-4.6,2.7c-0.5,2,0.7,4.1,2.7,4.6l5.8,1.6l-5.1,2.9
			c-1.8,1-2.4,3.4-1.4,5.2c0.7,1.2,2,1.9,3.3,1.9c0.6,0,1.3-0.2,1.9-0.5l5.1-2.9l-1.6,5.8c-0.5,2,0.7,4.1,2.7,4.6
			c0.3,0.1,0.7,0.1,1,0.1c1.7,0,3.2-1.1,3.7-2.8l3.5-13.2l2.9-1.7l-1.6,5.8c-0.5,2,0.7,4.1,2.7,4.6c0.3,0.1,0.7,0.1,1,0.1
			c1.7,0,3.2-1.1,3.7-2.8l3.5-13.2l16.2-9.4v19l-9.6,9.6c-1.5,1.5-1.5,3.9,0,5.4c1.5,1.5,3.9,1.5,5.4,0l4.3-4.3v3.4l-9.6,9.6
			c-1.5,1.5-1.5,3.9,0,5.4c0.7,0.7,1.7,1.1,2.7,1.1s1.9-0.4,2.7-1.1l4.3-4.3v5.8c0,2.1,1.7,3.8,3.8,3.8c2.1,0,3.8-1.7,3.8-3.8v-5.8
			l4.3,4.3c1.5,1.5,3.9,1.5,5.4,0c1.5-1.5,1.5-3.9,0-5.4l-9.6-9.6v-3.4l4.3,4.3c0.7,0.7,1.7,1.1,2.7,1.1c1,0,1.9-0.4,2.7-1.1
			c1.5-1.5,1.5-3.9,0-5.4l-9.6-9.6v-19l16.4,9.5l3.5,13.2c0.5,1.7,2,2.8,3.7,2.8c0.3,0,0.7,0,1-0.1c2-0.5,3.2-2.6,2.7-4.6l-1.6-5.8
			l2.9,1.7l3.5,13.2c0.5,1.7,2,2.8,3.7,2.8c0.3,0,0.7,0,1-0.1c2-0.5,3.2-2.6,2.7-4.6l-1.6-5.8l5.1,2.9c0.6,0.3,1.2,0.5,1.9,0.5
			c1.3,0,2.6-0.7,3.3-1.9c1-1.8,0.4-4.1-1.4-5.2l-5.1-2.9l5.8-1.6c2-0.5,3.2-2.6,2.7-4.6c-0.5-2-2.6-3.2-4.6-2.7l-13.2,3.5l-2.9-1.7
			l5.8-1.6c2-0.5,3.2-2.6,2.7-4.6c-0.5-2-2.6-3.2-4.6-2.7l-13.2,3.5l-16.4-9.5l16.4-9.5l13.2,3.5c0.3,0.1,0.7,0.1,1,0.1
			c1.7,0,3.2-1.1,3.7-2.8c0.5-2-0.7-4.1-2.7-4.6l-5.8-1.6l2.9-1.7l13.2,3.5c0.3,0.1,0.7,0.1,1,0.1c1.7,0,3.2-1.1,3.7-2.8
			c0.5-2-0.7-4.1-2.7-4.6l-5.8-1.6l5.1-2.9c1.8-1,2.4-3.4,1.4-5.2c-1-1.8-3.4-2.4-5.2-1.4l-5.1,2.9l1.6-5.8c0.5-2-0.7-4.1-2.7-4.6
			c-2-0.5-4.1,0.7-4.6,2.7l-3.5,13.2l-2.9,1.7l1.6-5.8c0.5-2-0.7-4.1-2.7-4.6c-2-0.5-4.1,0.7-4.6,2.7l-3.5,13.2l-16.4,9.5v-18.7
			l9.6-9.6c1.5-1.5,1.5-3.9,0-5.4c-1.5-1.5-3.9-1.5-5.4,0l-4.3,4.3v-3.4l9.6-9.6c1.5-1.5,1.5-3.9,0-5.4c-1.5-1.5-3.9-1.5-5.4,0
			l-4.3,4.3v-5.8c0-2.1-1.7-3.8-3.8-3.8c-2.1,0-3.8,1.7-3.8,3.8v5.8l-4.3-4.3c-1.5-1.5-3.9-1.5-5.4,0c-1.5,1.5-1.5,3.9,0,5.4
			l9.6,9.6v3.4l-4.3-4.3c-1.5-1.5-3.9-1.5-5.4,0c-1.5,1.5-1.5,3.9,0,5.4l9.6,9.6v18.7l-16.2-9.4l-3.5-13.2c-0.5-2-2.6-3.2-4.6-2.7
			c-2,0.5-3.2,2.6-2.7,4.6l1.6,5.8l-2.9-1.7l-3.5-13.2c-0.5-2-2.6-3.2-4.6-2.7c-2,0.5-3.2,2.6-2.7,4.6l1.6,5.8l-5.1-2.9
			c-1.8-1-4.1-0.4-5.2,1.4c-1,1.8-0.4,4.1,1.4,5.2l5.1,2.9l-5.8,1.6c-2,0.5-3.2,2.6-2.7,4.6c0.5,1.7,2,2.8,3.7,2.8
			c0.3,0,0.7,0,1-0.1l13.2-3.5l2.9,1.7l-5.8,1.6c-2,0.5-3.2,2.6-2.7,4.6c0.5,1.7,2,2.8,3.7,2.8c0.3,0,0.7,0,1-0.1l13.2-3.5l16.2,9.4
			l-16.2,9.4l-13.2-3.5c-2-0.5-4.1,0.7-4.6,2.7c-0.5,2,0.7,4.1,2.7,4.6l5.8,1.6l-2.9,1.7L360.1,877z"/>
		<g id="XMLID_7_">
			<path id="XMLID_123_" fill="#404041" d="M741.6,827.2c0-3.3-1.3-6.4-3.6-8.7c-2.3-2.3-5.4-3.6-8.7-3.6s-6.4,1.3-8.7,3.6
				L663.9,875c-5.6-0.5-11.2,1.5-15.3,5.6c-7.5,7.5-7.5,19.8,0,27.3c3.8,3.8,8.7,5.6,13.6,5.6c4.9,0,9.9-1.9,13.6-5.6
				c4.1-4.1,6.1-9.8,5.6-15.5l56.5-56.5C740.3,833.6,741.6,830.5,741.6,827.2z M732.6,830.5l-57.8,57.8c-0.9,0.9-1.3,2.2-1,3.5
				c0.8,3.9-0.4,7.9-3.2,10.7c-4.6,4.6-12,4.6-16.6,0c-4.6-4.6-4.6-12,0-16.6c2.2-2.2,5.2-3.4,8.3-3.4c0.7,0,1.5,0.1,2.3,0.2
				c1.2,0.2,2.5-0.1,3.4-1l57.9-57.9c0.9-0.9,2.1-1.4,3.4-1.4s2.5,0.5,3.4,1.4c0.9,0.9,1.4,2.1,1.4,3.4
				C734,828.5,733.5,829.6,732.6,830.5z"/>
			<path id="XMLID_10_" fill="#404041" d="M699.5,859.8l-2.9-2.9l-27.7,27.7c-1.1,1.1-2.7,1.5-4.1,1c-3.1-0.9-6.7-0.1-9.1,2.4
				c-3.3,3.4-3.3,8.9-0.1,12.4c3.5,3.8,9.4,3.9,13,0.3c2.5-2.5,3.2-6,2.2-9.1c-0.5-1.5-0.1-3.1,1-4.2L699.5,859.8z"/>
		</g>
	</g>
	<g id="XMLID_17_">
		<g id="XMLID_20_">
			<polygon id="XMLID_12_" fill="#404041" points="477.8,67.8 481.2,92 486.5,92 491.3,56.3 487.8,56.3 483.8,86.7 479.9,56.4
				476,56.4 472,86.7 467.8,56.3 463.9,56.3 468.8,92 474.3,92 			"/>
			<polygon id="XMLID_16_" fill="#404041" points="528.6,59.9 528.6,56.3 513.9,56.3 513.9,92 528.6,92 528.6,88.3 517.9,88.3
				517.9,75.7 526.6,75.7 526.6,72.1 517.9,72.1 517.9,59.9 			"/>
			<path id="XMLID_109_" fill="#404041" d="M564.7,84.8L566,92h4l-6.8-35.7h-5.8L550.6,92h3.7l1.4-7.2H564.7z M560.1,60.8l4,20.6
				h-7.9L560.1,60.8z"/>
			<polygon id="XMLID_34_" fill="#404041" points="601.7,92 601.7,59.9 608.2,59.9 608.2,56.3 591.1,56.3 591.1,59.9 597.7,59.9
				597.7,92 			"/>
			<polygon id="XMLID_119_" fill="#404041" points="630.4,56.3 630.4,92 634.3,92 634.3,75.9 643.1,75.9 643.1,92 647.1,92
				647.1,56.3 643.1,56.3 643.1,72.3 634.3,72.3 634.3,56.3 			"/>
			<polygon id="XMLID_120_" fill="#404041" points="685.2,59.9 685.2,56.3 670.5,56.3 670.5,92 685.2,92 685.2,88.3 674.5,88.3
				674.5,75.7 683.2,75.7 683.2,72.1 674.5,72.1 674.5,59.9 			"/>
			<path id="XMLID_129_" fill="#404041" d="M724.2,67.4v-2.9c0-5.3-2.3-8.2-7.9-8.2h-7.9V92h4V76.7h2.8c3.3,0,5.2,1.3,5.2,5.3v5.6
				c0,2.4,0.2,3.3,0.7,4.3h4c-0.7-1.2-0.7-2.7-0.7-4.3v-5.6c0-3.8-1.2-6.5-4.5-7.4C722.8,73.7,724.2,71.3,724.2,67.4z M720.2,68.2
				c0,3.9-1.9,4.9-5,4.9h-3V59.9h3.9c3,0,4.1,1.7,4.1,4.9V68.2z"/>
			<rect id="XMLID_124_" x="775" y="56.3" fill="#404041" width="4" height="35.7"/>
			<path id="XMLID_130_" fill="#404041" d="M818.2,68.1v-3.2c0-5.4-2.5-9-8-9c-5.5,0-8,3.6-8,9v18.4c0,5.4,2.5,9,8,9
				c5.5,0,8-3.6,8-9v-4.4h-3.8v4.6c0,3.2-1.3,5.1-4.2,5.1c-2.9,0-4.2-1.9-4.2-5.1V64.7c0-3.2,1.3-5.1,4.2-5.1c2.9,0,4.2,1.9,4.2,5.1
				v3.4H818.2z"/>
			<path id="XMLID_142_" fill="#404041" d="M857.2,83.4V64.9c0-5.5-2.7-9-8.2-9c-5.5,0-8.2,3.5-8.2,9v18.4c0,5.4,2.7,9,8.2,9
				C854.5,92.3,857.2,88.8,857.2,83.4z M844.8,83.6V64.7c0-3.2,1.4-5.1,4.2-5.1c2.9,0,4.2,1.9,4.2,5.1v18.9c0,3.3-1.3,5.1-4.2,5.1
				C846.1,88.7,844.8,86.8,844.8,83.6z"/>
			<polygon id="XMLID_138_" fill="#404041" points="893,92 897.1,92 897.1,56.3 893.6,56.3 893.6,82.1 885.3,56.3 880.3,56.3
				880.3,92 883.9,92 883.9,63.1 			"/>
			<path id="XMLID_144_" fill="#404041" d="M920,81.4v2c0,5.4,2.5,8.9,8,8.9c5.5,0,8.1-3.5,8.1-8.9c0-10-12-10.8-12-18.8
				c0-3.2,1.2-5,4.1-5c2.9,0,4.1,1.9,4.1,5.1v1.2h3.8v-1c0-5.4-2.5-8.9-7.9-8.9c-5.4,0-7.9,3.4-7.9,8.9c0,10,11.9,10.8,11.9,18.7
				c0,3.2-1.3,5.1-4.2,5.1c-2.9,0-4.2-1.9-4.2-5.1v-2.2H920z"/>
		</g>
		<g id="XMLID_174_">
			<circle id="XMLID_11_" fill="#404041" cx="966.3" cy="72.8" r="4.2"/>
			<circle id="XMLID_150_" fill="#404041" cx="433.8" cy="72.8" r="4.2"/>
		</g>
	</g>
</g>
</svg>
