<?xml version="1.0" encoding="utf-8"?>
  <!-- Generator: Adobe Illustrator 19.0.0, SVG Export Plug-In . SVG Version: 6.00 Build 0)  -->
  <!--width="1400px" height="980px" viewBox="0 0 1400 980" -->
  <!--0 280 560 840 1130 width:260-->
  <!--130 346 560 765 height: 196-->
  <svg version="1.1" id="Layer_1" xmlns="http://www.w3.org/2000/svg" xmlns:xlink="http://www.w3.org/1999/xlink" x="0px" y="0px"
  	 width="140px" height="96px" viewBox="840 765 260 196" enable-background="new 0 0 700 490" xml:space="preserve">
  <g id="XMLID_1_">
    <path id="XMLID_234_" fill="#404041" d="M975.2,799.8c-2.1,0-3.8,1.7-3.8,3.8v6.8c-23.6,1.5-44.7,16.9-53.1,39.2
			c-0.4,1.2-0.3,2.5,0.4,3.5c0.7,1,1.9,1.6,3.1,1.6h20.6h29v38.7c0,2.6-2.1,4.7-4.7,4.7c-2.6,0-4.7-2.1-4.7-4.7v-3.8
			c0-2.1-1.7-3.8-3.8-3.8s-3.8,1.7-3.8,3.8v3.8c0,6.8,5.5,12.3,12.3,12.3c6.8,0,12.3-5.5,12.3-12.3v-38.7h29h20.6
			c1.2,0,2.4-0.6,3.1-1.6c0.7-1,0.9-2.3,0.4-3.5c-8.5-22.3-29.5-37.7-53.1-39.2v-6.8C979,801.5,977.3,799.8,975.2,799.8z
			 M939.5,847.2h-11.9c5.1-10,13.2-18,22.9-23.2C945.8,830.1,942,837.9,939.5,847.2z M971.4,847.2h-24c4.7-15.8,13.9-26.7,24-28.9
			V847.2z M1022.8,847.2h-11.9c-2.5-9.2-6.3-17.1-11-23.2C1009.6,829.1,1017.7,837.2,1022.8,847.2z M1003,847.2h-24v-28.9
			C989.2,820.5,998.3,831.4,1003,847.2z"/>
  </g>
  </svg>
