<?xml version="1.0" encoding="utf-8"?>
<!-- Generator: Adobe Illustrator 19.0.0, SVG Export Plug-In . SVG Version: 6.00 Build 0)  -->
<!--width="1400px" height="980px" viewBox="0 0 1400 980" -->
<!--0 280 560 840 1130 width:260-->
<!--130 346 560 765 height: 196-->
<svg version="1.1" id="Layer_1" xmlns="http://www.w3.org/2000/svg" xmlns:xlink="http://www.w3.org/1999/xlink" x="0px" y="0px"
	 width="140px" height="96px" viewBox="840 346 260 196" enable-background="new 0 0 700 490" xml:space="preserve">
<g id="XMLID_1_">
  <g id="XMLID_6_">
    <g id="XMLID_53_">
      <path id="XMLID_225_" fill="#404041" d="M933.4,451.1h75.8c13.7,0,24.9-11.2,24.9-24.9c0-13.7-11.2-24.9-24.9-24.9
        c-2.5,0-5,0.4-7.3,1.1c-5.3-12.5-17.8-20.9-31.6-20.9c-18,0-32.8,13.8-34.3,31.4c-0.2,0-0.5,0-0.7,0c-10.5,0-19.1,8.6-19.1,19.1
        c0,9.2,6.6,17.1,15.5,18.7C932.3,451,932.8,451.1,933.4,451.1z M923.9,432c0-6.3,5.2-11.5,11.5-11.5c1.1,0,2.2,0.2,3.3,0.5
        c1.2,0.4,2.5,0.1,3.4-0.6c1-0.8,1.5-1.9,1.5-3.2c0-0.4,0-0.9,0-1.3c0-14.8,12-26.8,26.8-26.8c11.9,0,22.5,8,25.7,19.3
        c0.3,1.1,1.1,2,2.1,2.4c1,0.5,2.2,0.4,3.2-0.1c2.4-1.2,5.1-1.9,7.8-1.9c9.5,0,17.3,7.8,17.3,17.3s-7.8,17.3-17.3,17.3h-74.8
        c-0.2,0-0.4-0.1-0.5-0.1C928.2,442.7,923.9,437.8,923.9,432z"/>
      <path id="XMLID_54_" fill="#404041" d="M937.2,469.3c1.7,0,3.2-1.1,3.7-2.8l0.7-2.6c0.5-2-0.7-4.1-2.7-4.6
        c-2-0.5-4.1,0.7-4.6,2.7l-0.7,2.6c-0.5,2,0.7,4.1,2.7,4.6C936.6,469.3,936.9,469.3,937.2,469.3z"/>
      <path id="XMLID_84_" fill="#404041" d="M954.4,489.1c1.7,0,3.2-1.1,3.7-2.8l0.7-2.6c0.5-2-0.7-4.1-2.7-4.6
        c-2-0.5-4.1,0.7-4.6,2.7l-0.7,2.6c-0.5,2,0.7,4.1,2.7,4.6C953.7,489.1,954.1,489.1,954.4,489.1z"/>
      <path id="XMLID_85_" fill="#404041" d="M994.3,489.1c1.7,0,3.2-1.1,3.7-2.8l0.7-2.6c0.5-2-0.7-4.1-2.7-4.6
        c-2-0.5-4.1,0.7-4.6,2.7l-0.7,2.6c-0.5,2,0.7,4.1,2.7,4.6C993.6,489.1,994,489.1,994.3,489.1z"/>
      <path id="XMLID_92_" fill="#404041" d="M974.9,469.3c1.7,0,3.2-1.1,3.7-2.8l0.7-2.6c0.5-2-0.7-4.1-2.7-4.6
        c-2-0.5-4.1,0.7-4.6,2.7l-0.7,2.6c-0.5,2,0.7,4.1,2.7,4.6C974.2,469.3,974.5,469.3,974.9,469.3z"/>
      <path id="XMLID_93_" fill="#404041" d="M1012.5,469.3c1.7,0,3.2-1.1,3.7-2.8l0.7-2.6c0.5-2-0.7-4.1-2.7-4.6
        c-2-0.5-4.1,0.7-4.6,2.7l-0.7,2.6c-0.5,2,0.7,4.1,2.7,4.6C1011.8,469.3,1012.2,469.3,1012.5,469.3z"/>
    </g>
  </g>
</g>
</svg>
