<?xml version="1.0" encoding="utf-8"?>
  <!-- Generator: Adobe Illustrator 19.0.0, SVG Export Plug-In . SVG Version: 6.00 Build 0)  -->
  <!--width="1400px" height="980px" viewBox="0 0 1400 980" -->
  <!--0 280 560 840 1130 width:260-->
  <!--130 346 560 765 height: 196-->
  <svg version="1.1" id="Layer_1" xmlns="http://www.w3.org/2000/svg" xmlns:xlink="http://www.w3.org/1999/xlink" x="0px" y="0px"
  	 width="140px" height="96px" viewBox="1130 765 260 196" enable-background="new 0 0 700 490" xml:space="preserve">
     <g id="XMLID_4_">
       <path id="XMLID_14_" fill="#404041" d="M1206.8,888c0-29.3,23.8-53.1,53.1-53.1s53.1,23.8,53.1,53.1c0,2.1,1.7,3.8,3.8,3.8
         c2.1,0,3.8-1.7,3.8-3.8c0-33.5-27.2-60.7-60.7-60.7s-60.7,27.2-60.7,60.7c0,2.1,1.7,3.8,3.8,3.8
         C1205.1,891.8,1206.8,890.1,1206.8,888z"/>
       <path id="XMLID_13_" fill="#404041" d="M1222.6,888c0-20.6,16.7-37.3,37.3-37.3s37.3,16.7,37.3,37.3c0,2.1,1.7,3.8,3.8,3.8
         c2.1,0,3.8-1.7,3.8-3.8c0-24.8-20.1-44.9-44.9-44.9S1215,863.2,1215,888c0,2.1,1.7,3.8,3.8,3.8
         C1220.9,891.8,1222.6,890.1,1222.6,888z"/>
       <path id="XMLID_18_" fill="#404041" d="M1238.3,888c0-11.9,9.7-21.5,21.5-21.5s21.5,9.7,21.5,21.5c0,2.1,1.7,3.8,3.8,3.8
         c2.1,0,3.8-1.7,3.8-3.8c0-16.1-13.1-29.1-29.1-29.1s-29.1,13.1-29.1,29.1c0,2.1,1.7,3.8,3.8,3.8
         C1236.6,891.8,1238.3,890.1,1238.3,888z"/>
     </g>
  </svg>
