<?xml version="1.0" encoding="utf-8"?>
<!-- Generator: Adobe Illustrator 19.0.0, SVG Export Plug-In . SVG Version: 6.00 Build 0)  -->
<!--width="1400px" height="980px" viewBox="0 0 1400 980" -->
<!--0 280 560 840 1130 width:260-->
<!--130 346 560 765 height: 196-->
<svg version="1.1" id="Layer_1" xmlns="http://www.w3.org/2000/svg" xmlns:xlink="http://www.w3.org/1999/xlink" x="0px" y="0px"
	 width="140px" height="96px" viewBox="280 130 260 196" enable-background="new 0 0 700 490" xml:space="preserve">
<g id="XMLID_1_">
  <g id="XMLID_60_">
    <path id="XMLID_227_" fill="#404041" d="M413.4,207.1v-17c0-2.2-1.8-4-4-4s-4,1.8-4,4v17c0,2.2,1.8,4,4,4
      S413.4,209.3,413.4,207.1z"/>
    <path id="XMLID_179_" fill="#404041" d="M375.8,225c1,0,2.1-0.4,2.8-1.2c1.6-1.6,1.6-4.1,0-5.7l-12-12c-1.6-1.6-4.1-1.6-5.7,0
      c-1.6,1.6-1.6,4.1,0,5.7l12,12C373.8,224.6,374.8,225,375.8,225z"/>
    <path id="XMLID_178_" fill="#404041" d="M361.9,258.6c2.2,0,4-1.8,4-4s-1.8-4-4-4h-17c-2.2,0-4,1.8-4,4s1.8,4,4,4H361.9z"/>
    <path id="XMLID_75_" fill="#404041" d="M474,258.6c2.2,0,4-1.8,4-4s-1.8-4-4-4h-17c-2.2,0-4,1.8-4,4s1.8,4,4,4H474z"/>
    <path id="XMLID_76_" fill="#404041" d="M445.8,223.8l12-12c1.6-1.6,1.6-4.1,0-5.7c-1.6-1.6-4.1-1.6-5.7,0l-12,12
      c-1.6,1.6-1.6,4.1,0,5.7c0.8,0.8,1.8,1.2,2.8,1.2C444,225,445.1,224.6,445.8,223.8z"/>
    <path id="XMLID_231_" fill="#404041" d="M436.2,258.6c2.2,0,4-1.8,4-4c0-17-13.8-30.8-30.8-30.8c-17,0-30.8,13.8-30.8,30.8
      c0,2.2,1.8,4,4,4H436.2z M409.4,231.8c11.2,0,20.5,8.1,22.4,18.8H387C388.9,239.9,398.2,231.8,409.4,231.8z"/>
    <path id="XMLID_79_" fill="#404041" d="M436.2,272.1c2.2,0,4-1.8,4-4s-1.8-4-4-4h-53.6c-2.2,0-4,1.8-4,4s1.8,4,4,4H436.2z"/>
  </g>
</g>
</svg>
