<?xml version="1.0" encoding="utf-8"?>
<!-- Generator: Adobe Illustrator 19.0.0, SVG Export Plug-In . SVG Version: 6.00 Build 0)  -->
<!--width="1400px" height="980px" viewBox="0 0 1400 980" -->
<!--0 280 560 840 1130 width:260-->
<!--130 346 560 765 height: 196-->
<svg version="1.1" id="Layer_1" xmlns="http://www.w3.org/2000/svg" xmlns:xlink="http://www.w3.org/1999/xlink" x="0px" y="0px"
	 width="140px" height="96px" viewBox="280 346 260 196" enable-background="new 0 0 700 490" xml:space="preserve">
<g id="XMLID_1_">
  <path id="XMLID_156_" fill="#404041" d="M443.4,451.1c13.7,0,24.9-11.2,24.9-24.9c0-13.7-11.2-24.9-24.9-24.9
    c-2.5,0-5,0.4-7.3,1.1c-5.3-12.5-17.8-20.9-31.6-20.9c-18,0-32.8,13.8-34.3,31.4c-0.2,0-0.5,0-0.7,0c-10.5,0-19.1,8.6-19.1,19.1
    c0,9.2,6.6,17.1,15.5,18.7c0.5,0.2,1,0.3,1.6,0.3h23.1l-4.7,7.7c-0.9,1.5-0.7,3.4,0.5,4.7l10.9,10.9l-7.6,19.6
    c-0.6,1.7,0,3.6,1.5,4.6c0.6,0.4,1.3,0.6,2,0.6c1,0,2-0.4,2.7-1.1l23.8-24.4c1.4-1.4,1.4-3.6,0.2-5.1l-5.7-6.9l13.7-10.5H443.4z
     M368.6,443.5c-0.2,0-0.4-0.1-0.5-0.1c-5.7-0.7-10-5.6-10-11.4c0-6.3,5.2-11.5,11.5-11.5c1.1,0,2.2,0.2,3.3,0.5
    c1.2,0.4,2.5,0.1,3.4-0.6c1-0.8,1.5-1.9,1.5-3.2c0-0.4,0-0.9,0-1.3c0-14.8,12-26.8,26.8-26.8c11.9,0,22.5,8,25.7,19.3
    c0.3,1.1,1.1,2,2.1,2.4c1,0.4,2.2,0.4,3.2-0.1c2.4-1.2,5.1-1.9,7.8-1.9c9.5,0,17.3,7.8,17.3,17.3s-7.8,17.3-17.3,17.3H368.6z
     M406.6,457.9c-0.8,0.6-1.3,1.6-1.5,2.6c-0.1,1,0.2,2.1,0.8,2.8l6.1,7.3l-8.6,8.8l1.8-4.7c0.5-1.4,0.2-3-0.9-4L394,460.2l5.6-9.1
    h16L406.6,457.9z"/>
</g>
</svg>
