<?xml version="1.0" encoding="utf-8"?>
<!-- Generator: Adobe Illustrator 19.0.0, SVG Export Plug-In . SVG Version: 6.00 Build 0)  -->
<!--width="1400px" height="980px" viewBox="0 0 1400 980" -->
<!--0 280 560 840 1130 width:260-->
<!--130 346 560 765 height: 196-->
<svg version="1.1" id="Layer_1" xmlns="http://www.w3.org/2000/svg" xmlns:xlink="http://www.w3.org/1999/xlink" x="0px" y="0px"
	 width="140px" height="96px" viewBox="1130 560 260 196" enable-background="new 0 0 700 490" xml:space="preserve">
<g id="XMLID_1_">
  <path id="XMLID_67_" fill="#404041" d="M1254.4,704.1c0.7,1,1.9,1.5,3.1,1.5c0.6,0,1.2-0.1,1.7-0.4c36.1-18.5,39.5-41.8,42.2-60.5
    c1.2-8.4,2.4-16.4,6.3-22.9c0.1-0.2,0.3-0.5,0.3-0.7c0.5-1.1,0.8-2.3,0.8-3.6c0-12-24.6-18.3-48.8-18.3s-48.8,6.3-48.8,18.3
    c0,13.5,12.8,27.7,25.2,41.4c16.8,18.6,27.1,31.4,18.5,40.3C1253.4,700.6,1253.2,702.6,1254.4,704.1z M1269.6,690
    c-1.4,0.1-2.9,0.2-4.3,0.2c-0.2-2.4-0.9-5-2-7.6c5.6-0.1,11-0.6,16-1.4C1276.7,684.2,1273.5,687.1,1269.6,690z M1218.6,617.6
    c0-1.3,2.8-4.1,10.6-6.6c8.1-2.6,19-4.1,30.7-4.1s22.6,1.4,30.7,4.1c7.8,2.5,10.6,5.3,10.6,6.6c0,0.2,0,0.3-0.1,0.5
    c-0.1,0.2-0.2,0.3-0.3,0.5c-1,1.5-4,3.7-10.2,5.6c-8.1,2.6-19,4.1-30.7,4.1s-22.6-1.4-30.7-4.1
    C1221.4,621.7,1218.6,618.9,1218.6,617.6z M1222.6,629.8c9.4,4,23.4,6,37.3,6c13.4,0,26.9-1.9,36.3-5.7c-0.5,1.9-0.9,3.9-1.2,5.9
    c-8.3,3.5-21.2,5.6-35.1,5.6c-12.4,0-24.1-1.7-32.4-4.5C1225.6,634.6,1224,632.2,1222.6,629.8z M1231.6,642.2
    c8,2,17.9,3.2,28.3,3.2c13.2,0,25.7-1.8,34.4-5c-0.2,1.1-0.3,2.2-0.5,3.3c-0.3,1.9-0.5,3.7-0.8,5.6c-8.4,3-20.3,4.8-33.1,4.8
    c-6.7,0-13.2-0.5-19.1-1.4C1237.6,649.2,1234.5,645.7,1231.6,642.2z M1244.7,657c4.9,0.6,10,0.8,15.2,0.8
    c12.2,0,23.7-1.6,32.3-4.3c-0.7,3.4-1.5,6.8-2.7,10.2c-8.1,2.4-18.6,3.7-29.7,3.7c-2.1,0-4.3-0.1-6.4-0.2
    C1250.8,663.9,1247.8,660.5,1244.7,657z M1256.5,671.1c1.1,0,2.2,0,3.4,0c10.2,0,20-1.1,28-3.1c-1.3,2.9-2.9,5.8-4.9,8.7
    c-6.5,1.3-13.8,2-21.4,2C1260.1,676.2,1258.4,673.7,1256.5,671.1z"/>
</g>
</svg>
